<svg xmlns="http://www.w3.org/2000/svg" style="display: none;"><symbol id="makeup" viewBox="0 0 64 64"><title>makeup</title><g><g><path d="m21 62h-15c0-4.01 2.96-7.4 6.94-7.95l1.07-.14c.06 1.52.54 2.96 1.35 4.19.88 1.32 2.12 2.39 3.64 3.04z" fill="#f0d0b4"/></g><g><path d="m58 62h-36l-1.13-2.26c-.57-1.14-.87-2.41-.87-3.69v-2.92c.03-.02.07-.04.1-.05l7.9-1.08.67-3.33c1.07.22 2.19.33 3.33.33s2.25-.11 3.33-.32l.67 3.32 15.06 2.05c1.49.2 2.84.81 3.94 1.7.37.3.71.63 1.02.98 1.24 1.41 1.98 3.27 1.98 5.27z" fill="#f0d0b4"/></g><g><path d="m9 43v-18c0-6.35 2.58-12.1 6.74-16.26s9.91-6.74 16.26-6.74c11.14 0 20.44 7.93 22.55 18.45l-5.55 5.55v-1c0-2.21-1.79-4-4-4h-.47c-4.11 0-8.19-.52-12.14-1.52-3.95-1.01-7.78-2.51-11.39-4.48-3.68 1.84-6 5.6-6 9.71v7.29c0 .79.05 1.55.16 2.31v.01l-3.16 5.68z" fill="#656d78"/></g><g><path d="m23.85 46.92c.05.03.09.05.14.07l-.01.01c-.17 2.62-1.69 4.88-3.88 6.08-.03.01-.07.03-.1.05v2.92c0 1.28.3 2.55.87 3.69l1.13 2.26h-1l-2-.86c-1.52-.65-2.76-1.72-3.64-3.04-.81-1.23-1.29-2.67-1.35-4.19-.01-.11-.01-.23-.01-.35-2.24-.79-3.99-2.6-4.68-4.88l5.68-5.68 2.85-1.58c1.52 2.28 3.58 4.18 6 5.5z" fill="#656d78"/></g><g><path d="m55 26v29.75c-1.1-.89-2.45-1.5-3.94-1.7l-15.06-2.05-.67-3.32c7.79-1.55 13.67-8.43 13.67-16.68z" fill="#656d78"/></g><g><path d="m45 21h-.47c-4.11 0-8.19-.52-12.14-1.52-3.95-1.01-7.78-2.51-11.39-4.48-3.68 1.84-6 5.6-6 9.71v7.29c0 .79.05 1.55.16 2.31l2.69 7.11c1.52 2.28 3.58 4.18 6 5.5.05.03.09.05.14.07 1.45.78 3.02 1.36 4.68 1.68 1.07.22 2.19.33 3.33.33s2.25-.11 3.33-.32c7.79-1.55 13.67-8.43 13.67-16.68v-7c0-2.21-1.79-4-4-4z" fill="#f0d0b4"/></g><g><path d="m15 43-5.68 5.68-3.7 3.7c-.4.4-.94.62-1.5.62-.58 0-1.12-.24-1.5-.62s-.62-.92-.62-1.5c0-.56.22-1.1.62-1.5l6.38-6.38 3-3z" fill="#d3a06c"/></g><g><path d="m61.38 16.62c.38.38.62.92.62 1.5 0 .56-.22 1.1-.62 1.5l-6.38 6.38-6 6-3 3-1-1-1-1-1-1 6-6 5.55-5.55 3.83-3.83c.4-.4.94-.62 1.5-.62.58 0 1.12.24 1.5.62z" fill="#d3a06c"/></g><g><path d="m24 38-6.15 3.42-2.85 1.58-3-3 3.16-5.68v-.01l1.84-3.31c1.94 0 3.68.78 4.95 2.05s2.05 3.01 2.05 4.95z" fill="#fcd770"/></g><g><path d="m45 34-.43 1.73c-.34 1.33-1.54 2.27-2.91 2.27h-1.66v-1.66c0-1.37.94-2.57 2.27-2.91l1.73-.43z" fill="#fcd770"/></g><g><path d="m38 39.91s-2 4-6 4c-2 0-3.5-1-4.5-2s-1.5-2-1.5-2c.91-.61 1.96-.91 3-.91s2.09.3 3 .91c.91-.61 1.96-.91 3-.91s2.09.3 3 .91z" fill="#ff826e"/></g></g><g><path d="m41 28c3.712 0 4-2.296 4-3h-2c0 .247 0 1-2 1s-2-.753-2-1h-2c0 .704.288 3 4 3z"/><path d="m27 25h-2c0 .247 0 1-2 1s-2-.753-2-1h-2c0 .704.288 3 4 3s4-2.296 4-3z"/><path d="m32 38.745c-2.068-1.099-4.576-.987-6.555.331l-.734.489.395.79c.093.186 2.329 4.553 6.895 4.553s6.802-4.367 6.895-4.553l.395-.79-.734-.489c-1.982-1.318-4.49-1.43-6.557-.331zm0 4.163c-2.27 0-3.816-1.6-4.572-2.62 1.315-.503 2.809-.354 4.018.452l.554.37.555-.37c1.209-.806 2.701-.954 4.018-.452-.758 1.022-2.303 2.62-4.573 2.62z"/><path d="m34 36v-2c-.919 0-1.859-.25-2.542-.486 1.012-1.877 1.542-3.97 1.542-6.119v-.395h-2v.395c0 2.16-.634 4.253-1.832 6.051l-.628.942 1.013.507c.091.044 2.236 1.105 4.447 1.105z"/><path d="m62.086 20.328c.581-.581.914-1.385.914-2.207 0-1.721-1.4-3.121-3.121-3.121-.822 0-1.626.333-2.207.914l-2.577 2.577c-2.879-10.234-12.309-17.491-23.095-17.491-13.233 0-24 10.767-24 24v17.586l-6.086 6.086c-.581.581-.914 1.385-.914 2.207 0 1.721 1.4 3.121 3.121 3.121.822 0 1.626-.333 2.207-.914l2.65-2.65c.606 1.15 1.463 2.151 2.51 2.917-3.776 1.11-6.488 4.613-6.488 8.647v1h15.795 2.823 35.382v-1c0-2.628-1.155-5.028-3-6.693v-28.893zm-3-3c.209-.209.498-.328.793-.328.618 0 1.121.503 1.121 1.121 0 .295-.119.584-.328.793l-14.672 14.672-1.586-1.586zm-27.086 30.672c-4.998 0-9.663-2.32-12.686-6.252l5.686-3.159v-.589c0-4.411-3.589-8-8-8h-.589l-.411.74v-6.032c0-3.585 1.901-6.825 4.997-8.574 7.224 3.84 15.349 5.866 23.533 5.866h.47c1.654 0 3 1.346 3 3v.586l-6.414 6.414.458.458-.014.004c-1.784.445-3.03 2.042-3.03 3.881v2.657h2.657c1.839 0 3.436-1.246 3.881-3.03l.004-.014.458.458 1.761-1.761c-1.27 7.561-7.844 13.347-15.761 13.347zm-4.505 1.427-.336 1.678-3.903.532c.711-.935 1.217-2.015 1.495-3.164.886.389 1.802.711 2.744.954zm-12.321-7.667-1.934-1.934 4.333-7.799c2.852.271 5.128 2.548 5.399 5.399zm28.519-7.653.199.199-.294 1.179c-.223.892-1.021 1.515-1.941 1.515h-.657v-.657c0-.92.623-1.718 1.515-1.941zm-33.693-9.107c0-12.131 9.869-22 22-22 10.271 0 19.197 7.182 21.444 17.141l-3.619 3.619c-.555-2.155-2.499-3.76-4.825-3.76h-.47c-8.031 0-16.003-2.032-23.052-5.878l-.458-.25-.468.233c-4.041 2.022-6.552 6.084-6.552 10.603v7.292c0 .702.049 1.407.13 2.106l-2.936 5.286-1.194 1.194zm-5.086 26.672c-.209.209-.498.328-.793.328-.618 0-1.121-.503-1.121-1.121 0-.295.119-.584.328-.793l8.672-8.672 1.586 1.586zm5.567-2.739 5.127-5.127 1.942-1.079c1.465 1.973 3.293 3.594 5.357 4.803-.324 1.99-1.571 3.763-3.375 4.717l-.532.281v3.525c0 1.428.337 2.857.976 4.134l.182.363-.767-.328c-2.667-1.143-4.391-3.756-4.391-6.658v-.707l-.666-.235c-1.758-.623-3.158-1.982-3.853-3.689zm2.59 6.113.067-.009c.387 2.401 1.698 4.534 3.645 5.963h-9.711c.442-3.05 2.873-5.529 5.999-5.954zm43.857 5.954h-34.31l-.854-1.707c-.5-1-.765-2.12-.765-3.239v-2.09l7.841-1.069.616-3.081c.837.118 1.685.186 2.544.186.865 0 1.708-.082 2.54-.201l.619 3.095 15.771 2.151c3.125.426 5.556 2.905 5.998 5.955zm-2.928-7.061c-.863-.433-1.802-.74-2.801-.876l-14.358-1.958-.339-1.698c7.613-1.971 13.279-8.797 13.477-16.971l4.021-4.022z"/></g></symbol><symbol id="advertising" viewBox="0 0 64 64"><title>advertising</title><g><g><path d="m62 47v8c0 2.21-1.79 4-4 4h-8v-6-6z" fill="#aab2bd"/></g><g><path d="m25 30.47v3.53c0 1.1-.9 2-2 2h-2v-5.88c1.34.07 2.67.19 4 .35z" fill="#aab2bd"/></g><g><path d="m62 47h-12-48v-38c0-2.21 1.79-4 4-4h52c2.21 0 4 1.79 4 4z" fill="#69d6f4"/></g><g><path d="m50 59h-44c-2.209 0-4-1.791-4-4v-8h48z" fill="#ccd1d9"/></g><g><circle cx="12" cy="53" fill="#ff826e" r="2"/></g><g><path d="m17.34 30c.55 0 1.11.01 1.66.03.67.02 1.33.05 2 .09v5.88 2l1.38 1.38c.4.4.62.94.62 1.5 0 1.17-.95 2.12-2.12 2.12h-3.76c-1.17 0-2.12-.95-2.12-2.12v-11.21c.75.21 1.53.33 2.34.33z" fill="#969faa"/></g><g><path d="m19 13.97v16.06c-.55-.02-1.11-.03-1.66-.03-.81 0-1.59-.12-2.34-.33-3.22-.91-5.73-3.62-5.98-7.07-.34-4.69 3.36-8.6 7.98-8.6.67 0 1.33-.01 2-.03z" fill="#fcd770"/></g><g><path d="m33.98 11.77c-3.03 2.38-4.98 6.08-4.98 10.23s1.95 7.85 4.98 10.23c-1.12-.35-2.25-.66-3.4-.89-1.85-.37-3.71-.66-5.58-.87-1.33-.16-2.66-.28-4-.35-.67-.04-1.33-.07-2-.09v-16.06c3.89-.11 7.76-.55 11.58-1.31 1.15-.23 2.28-.54 3.4-.89z" fill="#ccd1d9"/></g><g><path d="m42 9c7.18 0 13 5.82 13 13s-5.82 13-13 13c-3.03 0-5.81-1.04-8.02-2.77-3.03-2.38-4.98-6.08-4.98-10.23s1.95-7.85 4.98-10.23c2.21-1.73 4.99-2.77 8.02-2.77z" fill="#ffeaa7"/></g><g><path d="m49 22-12 6v-12z" fill="#ff826e"/></g></g><g><path d="m17 13c-2.492 0-4.895 1.047-6.592 2.873-1.721 1.852-2.568 4.267-2.383 6.801.258 3.53 2.684 6.485 5.976 7.713v10.492c-.001 1.721 1.399 3.121 3.12 3.121h3.758c1.721 0 3.121-1.4 3.121-3.121 0-.822-.333-1.626-.914-2.207l-1.086-1.086v-.586h1c1.654 0 3-1.346 3-3v-2.386c1.468.195 2.932.419 4.384.708.974.193 1.994.461 3.193.834 2.347 1.777 5.259 2.844 8.423 2.844 7.72 0 14-6.28 14-14s-6.28-14-14-14c-3.164 0-6.076 1.067-8.423 2.844-1.199.373-2.219.641-3.194.834-4.403.877-8.905 1.322-13.383 1.322zm-6.98 9.528c-.144-1.974.514-3.854 1.853-5.294 1.32-1.42 3.189-2.234 5.127-2.234.333 0 .667-.02 1-.025v14.045c-.218-.003-.437-.018-.655-.019-3.845-.02-7.062-2.862-7.325-6.473zm10.859 19.472h-3.758c-.618 0-1.121-.503-1.121-1.121v-9.987c.438.063.881.106 1.335.109.888.004 1.776.038 2.665.077v7.336l1.672 1.672c.208.209.328.498.328.793 0 .618-.503 1.121-1.121 1.121zm3.121-8c0 .552-.449 1-1 1h-1v-3.797c.667.049 1.334.091 2 .16zm30-12c0 6.617-5.383 12-12 12s-12-5.383-12-12 5.383-12 12-12 12 5.383 12 12zm-23.198-8.367c-1.751 2.337-2.802 5.228-2.802 8.367s1.051 6.03 2.802 8.367c-.009-.002-.019-.004-.028-.006-3.55-.707-7.163-1.128-10.774-1.283v-14.152c3.614-.155 7.225-.58 10.773-1.287.01-.002.02-.005.029-.006z"/><path d="m42 30v2c3.824 0 7.257-2.129 8.96-5.555l-1.791-.891c-1.362 2.743-4.109 4.446-7.169 4.446z"/><path d="m36 14.382v15.236l15.236-7.618zm2 3.236 8.764 4.382-8.764 4.382z"/><path d="m58 4h-52c-2.757 0-5 2.243-5 5v46c0 2.757 2.243 5 5 5h52c2.757 0 5-2.243 5-5v-46c0-2.757-2.243-5-5-5zm-52 2h52c1.654 0 3 1.346 3 3v37h-58v-37c0-1.654 1.346-3 3-3zm-3 49v-7h46v10h-43c-1.654 0-3-1.346-3-3zm55 3h-7v-10h10v7c0 1.654-1.346 3-3 3z"/><path d="m47 52h-32.184c-.414-1.161-1.514-2-2.816-2s-2.402.839-2.816 2h-4.184v2h4.184c.414 1.161 1.514 2 2.816 2s2.402-.839 2.816-2h32.184zm-35 2c-.551 0-1-.448-1-1s.449-1 1-1 1 .448 1 1-.449 1-1 1z"/><path d="m7 10h10v-2h-10c-1.103 0-2 .897-2 2v2h2z"/><path d="m19 8h2v2h-2z"/><path d="m57 34h2v2h-2z"/><path d="m57 38h2v2h-2z"/><path d="m57 42h2v2h-2z"/></g></symbol><symbol id="engagement" viewBox="0 0 64 64"><title>engagement</title><g><g><path d="m6 62h-4v-4.73c0-1.9 1.34-3.54 3.21-3.92l3.61-.73c.45-.13.85-.35 1.18-.65v.03c0 1.66 1.34 3 3 3s3-1.34 3-3v-.03c.33.3.73.52 1.18.65l3.61.73c.65.13 1.22.41 1.71.8-.92.74-1.5 1.88-1.5 3.12v4.73z" fill="#b4dd7f"/></g><g><path d="m58 62h-15v-4.73c0-1.24-.58-2.38-1.5-3.12.24-.2.51-.37.8-.5.28-.13.59-.24.91-.3l3.61-.73c.45-.13.85-.35 1.18-.65v.03c0 1.66 1.34 3 3 3s3-1.34 3-3v-.03c.33.3.73.52 1.18.65l3.61.73c.32.07.63.17.91.31 1.38.64 2.3 2.04 2.3 3.61v4.73z" fill="#b4dd7f"/></g><g><path d="m39 62h-14-4v-4.73c0-1.24.58-2.38 1.5-3.12h.01c.48-.39 1.06-.67 1.7-.8l3.61-.73c.36-.1.69-.26.97-.48l3.21 3.86 3.21-3.86c.28.22.61.38.97.48l3.61.73c.64.13 1.22.41 1.7.8.01-.01.01 0 .01 0 .92.74 1.5 1.88 1.5 3.12v4.73z" fill="#fcd770"/></g><g><path d="m55 15.43v.45c0 3.89-1.68 7.59-4.62 10.14l-13.96 12.14c-.83-1.28-2.49-2.16-4.42-2.16s-3.59.88-4.42 2.16l-13.96-12.14c-2.94-2.55-4.62-6.25-4.62-10.14v-.45c0-7.41 6.02-13.43 13.43-13.43h.01c3.56 0 6.98 1.42 9.49 3.93l.07.07.07-.07c2.51-2.51 5.93-3.93 9.49-3.93h.01c7.41 0 13.43 6.02 13.43 13.43z" fill="#ff826e"/></g><g><path d="m32 11c-3.87 0-7 3.13-7 7s3.13 7 7 7c-5.16 0-10.15-1.85-14.07-5.21l-.17-.14c-.48-.41-.76-1.02-.76-1.65s.28-1.24.76-1.65l.17-.14c1.96-1.68 4.19-2.98 6.57-3.87 2.38-.88 4.92-1.34 7.5-1.34z" fill="#ccd1d9"/></g><g><path d="m46.24 16.35c.48.41.76 1.02.76 1.65s-.28 1.24-.76 1.65l-.17.14c-1.96 1.68-4.19 2.98-6.57 3.87-2.38.88-4.92 1.34-7.5 1.34 3.87 0 7-3.13 7-7s-3.13-7-7-7c5.16 0 10.15 1.85 14.07 5.21z" fill="#ccd1d9"/></g><g><path d="m32 11c3.87 0 7 3.13 7 7s-3.13 7-7 7-7-3.13-7-7 3.13-7 7-7z" fill="#69d6f4"/></g><g><circle cx="32" cy="18" fill="#4fc1e9" r="3"/></g><g><path d="m6.23 45.08c-.74-.84-1.23-2.08-1.23-3.08 0-1.66 1.34-3 3-3 .06 0 .11.01.17.02.55-1.73 2.49-3.02 4.83-3.02s4.28 1.29 4.83 3.02c.06-.01.11-.02.17-.02 1.66 0 3 1.34 3 3 0 1-.48 2.24-1.23 3.07-.09-.18-.22-.34-.36-.48-.36-.37-.86-.59-1.41-.59h-1c-1.32 0-2.61-.31-3.79-.89l-.21-.11-.21.11c-1.18.58-2.47.89-3.79.89h-1c-.77 0-1.44.44-1.77 1.08z" fill="#656d78"/></g><g><path d="m36.42 38.16c.18.27.32.56.41.86.06-.01.11-.02.17-.02 1.66 0 3 1.34 3 3 0 1-.48 2.24-1.23 3.07-.09-.18-.22-.34-.36-.48-.36-.37-.86-.59-1.41-.59h-1-1.76c-1.47 0-2.92-.34-4.24-1-.74 0-1.38.4-1.73 1h-1.27c-.77 0-1.44.44-1.77 1.08-.74-.84-1.23-2.08-1.23-3.08 0-1.66 1.34-3 3-3 .06 0 .11.01.17.02.09-.3.23-.59.41-.86.83-1.28 2.49-2.16 4.42-2.16s3.59.88 4.42 2.16z" fill="#b27946"/></g><g><path d="m58 45c0 3 2 5 2 7 0 .44-.1 1.02-.3 1.66-.28-.14-.59-.24-.91-.31l-3.61-.73c-.45-.13-.85-.35-1.18-.65-.46-.4-.78-.95-.92-1.55v-.01c1.15-.7 1.92-1.96 1.92-3.41v-3c-1.32 0-2.61-.31-3.79-.89l-.21-.11-.21.11c-1.18.58-2.47.89-3.79.89v3c0 1.1.45 2.1 1.17 2.83.23.22.48.42.75.58v.01c-.14.6-.46 1.15-.92 1.55-.33.3-.73.52-1.18.65l-3.61.73c-.32.06-.63.17-.91.3-.2-.63-.3-1.21-.3-1.65 0-2 2-4 2-7v-2c0-3.87 3.13-7 7-7 1.94 0 3.68.78 4.95 2.05s2.05 3.01 2.05 4.95z" fill="#656d78"/></g><g><path d="m55 44v3c0 1.45-.77 2.71-1.92 3.41-.61.38-1.32.59-2.08.59s-1.47-.21-2.08-.59c-.27-.16-.52-.36-.75-.58-.72-.73-1.17-1.73-1.17-2.83v-3c1.32 0 2.61-.31 3.79-.89l.21-.11.21.11c1.18.58 2.47.89 3.79.89z" fill="#f0d0b4"/></g><g><path d="m53.08 50.42c.14.6.46 1.15.92 1.55v.03c0 1.66-1.34 3-3 3s-3-1.34-3-3v-.03c.46-.4.78-.95.92-1.55v-.01c.61.38 1.32.59 2.08.59s1.47-.21 2.08-.59z" fill="#f0d0b4"/></g><g><path d="m35.87 48c.09-.32.13-.65.13-1v-3h1c.55 0 1.05.22 1.41.59.14.14.27.3.36.48.15.28.23.59.23.93 0 1.1-.9 2-2 2z" fill="#f0d0b4"/></g><g><path d="m36 47c0 .35-.04.68-.13 1-.26 1.02-.91 1.88-1.79 2.41-.6.38-1.32.59-2.08.59-.08 0-.16 0-2.08-.59-.27-.16-.52-.36-.75-.58-.5-.5-.86-1.12-1.04-1.83-.09-.32-.13-.65-.13-1v-2c0-.36.1-.71.27-1 .35-.6.99-1 1.73-1 1.32.66 2.77 1 4.24 1h1.76z" fill="#f0d0b4"/></g><g><path d="m28 45v2c0 .35.04.68.13 1h-1.13c-.55 0-1.05-.22-1.41-.59-.37-.36-.59-.86-.59-1.41 0-.33.08-.65.23-.92.33-.64 1-1.08 1.77-1.08h1.27c-.17.29-.27.64-.27 1z" fill="#f0d0b4"/></g><g><path d="m34.08 50.42c.16.69.56 1.3 1.13 1.72l-3.21 3.86-3.21-3.86c.57-.42.97-1.03 1.13-1.72v-.01c1.92.59 2 .59 2.08.59.76 0 1.48-.21 2.08-.59z" fill="#f0d0b4"/></g><g><path d="m20 46c0 1.1-.9 2-2 2h-1.13c.09-.32.13-.65.13-1v-3h1c.55 0 1.05.22 1.41.59.14.14.27.3.36.48.15.28.23.59.23.93z" fill="#f0d0b4"/></g><g><path d="m16.87 48c-.18.7-.55 1.33-1.04 1.83-.23.22-.48.42-.75.58-.61.38-1.32.59-2.08.59s-1.47-.21-2.08-.59c-.88-.53-1.53-1.39-1.79-2.41-.09-.32-.13-.65-.13-1v-3c1.32 0 2.61-.31 3.79-.89l.21-.11.21.11c1.18.58 2.47.89 3.79.89v3c0 .35-.04.68-.13 1z" fill="#f0d0b4"/></g><g><path d="m15.08 50.42c.14.6.46 1.15.92 1.55v.03c0 1.66-1.34 3-3 3s-3-1.34-3-3v-.03c.46-.4.78-.95.92-1.55v-.01c.61.38 1.32.59 2.08.59s1.47-.21 2.08-.59z" fill="#f0d0b4"/></g><g><path d="m6.23 45.08c.33-.64 1-1.08 1.77-1.08h1v3c0 .35.04.68.13 1h-1.13c-.55 0-1.05-.22-1.41-.59-.37-.36-.59-.86-.59-1.41 0-.33.08-.65.23-.92z" fill="#f0d0b4"/></g></g><g><path d="m60.848 53.187c.09-.424.152-.831.152-1.187 0-1.113-.455-2.126-.937-3.198-.522-1.162-1.063-2.365-1.063-3.802v-2c0-4.411-3.589-8-8-8s-8 3.589-8 8v2c0 1.437-.541 2.64-1.063 3.802-.482 1.072-.937 2.085-.937 3.198 0 .227.033.482.07.74-.343-.157-.699-.291-1.08-.368l-3.54-.712c-.502-.143-.914-.479-1.17-.917.548-.481.999-1.067 1.296-1.743h.424c1.654 0 3-1.346 3-3 0-.267-.046-.522-.112-.768.677-.961 1.112-2.162 1.112-3.232 0-1.869-1.295-3.429-3.031-3.865l13.068-11.364c3.154-2.743 4.963-6.713 4.963-10.893v-.443c0-7.959-6.476-14.435-14.435-14.435-3.536 0-6.878 1.263-9.562 3.626-2.641-2.345-6.006-3.626-9.568-3.626-7.959 0-14.435 6.476-14.435 14.435v.443c0 4.18 1.809 8.15 4.963 10.893l13.068 11.364c-1.736.436-3.031 1.996-3.031 3.865 0 1.071.435 2.272 1.112 3.232-.066.247-.112.501-.112.768 0 1.654 1.346 3 3 3h.424c.297.677.749 1.263 1.297 1.744-.252.436-.649.768-1.095.897l-3.616.73c-.543.11-1.047.313-1.507.581-.47-.271-.98-.473-1.513-.581l-3.54-.712c-.502-.143-.914-.479-1.17-.917.548-.481.999-1.067 1.296-1.743h.424c1.654 0 3-1.346 3-3 0-.267-.046-.522-.112-.768.677-.96 1.112-2.161 1.112-3.231 0-2.036-1.529-3.721-3.499-3.969-.929-1.815-3.083-3.031-5.501-3.031s-4.572 1.216-5.501 3.031c-1.97.248-3.499 1.933-3.499 3.969 0 1.071.435 2.272 1.112 3.232-.066.247-.112.501-.112.768 0 1.654 1.346 3 3 3h.424c.297.677.749 1.263 1.297 1.744-.252.436-.649.768-1.095.897l-3.616.73c-2.323.47-4.01 2.531-4.01 4.902v5.727h19 1 22 1 19v-5.727c0-1.669-.846-3.172-2.152-4.086zm-17.087-3.565c.581-1.292 1.239-2.756 1.239-4.622v-2c0-3.309 2.691-6 6-6s6 2.691 6 6v2c0 1.866.658 3.33 1.239 4.622.408.909.761 1.693.761 2.378 0 .105-.023.241-.039.366l-3.511-.706c-.502-.143-.914-.479-1.17-.917 1.045-.917 1.72-2.246 1.72-3.743v-4h-1c-1.154 0-2.31-.273-3.342-.789l-.658-.329-.658.329c-1.032.516-2.188.789-3.342.789h-1v4c0 1.497.675 2.827 1.721 3.744-.252.436-.649.768-1.095.897l-3.587.725c-.016-.125-.039-.261-.039-.366 0-.685.353-1.469.761-2.378zm7.239 4.378c-.977 0-1.79-.706-1.963-1.673.158-.185.301-.383.424-.595.488.16.999.268 1.539.268.541 0 1.052-.108 1.541-.268.123.211.267.408.427.593-.157.948-.976 1.675-1.968 1.675zm3-7c0 1.654-1.346 3-3 3s-3-1.346-3-3v-2.054c1.037-.111 2.055-.393 3-.833.945.439 1.963.722 3 .833zm-25 0v-2c0-.486.349-.893.809-.982 1.38.643 2.905.982 4.427.982h.764v2c0 1.654-1.346 3-3 3s-3-1.346-3-3zm8 0v-2c.551 0 1 .449 1 1s-.449 1-1 1zm-27-31.122v-.443c0-6.857 5.578-12.435 12.435-12.435 3.321 0 6.444 1.293 8.858 3.707l.772.642.707-.707c2.349-2.349 5.472-3.642 8.793-3.642 6.857 0 12.435 5.578 12.435 12.435v.443c0 3.601-1.558 7.021-4.275 9.384l-13.197 11.476c-1.111-1.074-2.746-1.738-4.528-1.738s-3.417.664-4.528 1.738l-13.197-11.476c-2.717-2.363-4.275-5.783-4.275-9.384zm16 30.122c0-.551.449-1 1-1v2c-.551 0-1-.449-1-1zm1.78-3h-.78c-.594 0-1.145.179-1.611.478-.235-.496-.389-1.027-.389-1.478 0-1.103.897-2 1.959-2l.928.063.236-.742c.427-1.345 2.058-2.321 3.877-2.321s3.45.976 3.877 2.32l.236.742.777-.047c.05-.003.101-.009.11-.015 1.103 0 2 .897 2 2 0 .45-.155.982-.389 1.478-.466-.299-1.017-.478-1.611-.478h-1-1.764c-1.308 0-2.618-.309-3.789-.895l-.211-.105h-.236c-.883 0-1.67.391-2.22 1zm4.22 9c.541 0 1.052-.108 1.541-.268.096.165.204.321.323.47l-1.864 2.236-1.861-2.233c.118-.15.226-.307.322-.472.488.159.999.267 1.539.267zm-22-5v-2.054c1.037-.111 2.055-.393 3-.833.945.439 1.963.722 3 .833v2.054c0 1.654-1.346 3-3 3s-3-1.346-3-3zm8 0v-2c.551 0 1 .449 1 1s-.449 1-1 1zm-11-1c0-.551.449-1 1-1v2c-.551 0-1-.449-1-1zm2-3h-1c-.594 0-1.145.179-1.611.478-.235-.496-.389-1.027-.389-1.478 0-1.103.897-2 1.959-2l.928.063.236-.742c.427-1.345 2.058-2.321 3.877-2.321s3.45.976 3.877 2.32l.236.742.777-.047c.05-.003.101-.009.11-.015 1.103 0 2 .897 2 2 0 .45-.155.982-.389 1.478-.466-.299-1.017-.478-1.611-.478h-1c-1.154 0-2.31-.273-3.342-.789l-.658-.329-.658.329c-1.032.516-2.188.789-3.342.789zm4 9c.541 0 1.052-.108 1.54-.268.123.211.267.408.427.593-.157.948-.975 1.675-1.967 1.675-.99 0-1.807-.724-1.966-1.669.16-.186.304-.385.427-.599.488.16.999.268 1.539.268zm-6 9v-4h-2v4h-2v-3.727c0-1.422 1.012-2.659 2.406-2.941l3.692-.749c.07-.02.134-.049.202-.073.598 1.458 2.029 2.49 3.7 2.49 1.665 0 3.093-1.024 3.695-2.499.094.034.185.073.283.1l3.616.73c.11.022.21.07.316.104-.567.816-.91 1.792-.91 2.838v3.727zm35 0h-2v-4h-2v4h-12v-4h-2v4h-2v-3.727c0-1.422 1.012-2.659 2.406-2.941l3.692-.749c.155-.044.304-.101.451-.162l3.451 4.141 3.455-4.146c.168.072.342.134.523.185l3.617.73c1.393.283 2.405 1.52 2.405 2.942zm19 0h-2v-4h-2v4h-13v-3.727c0-1.046-.343-2.021-.909-2.837.106-.034.206-.082.315-.104l3.692-.749c.07-.02.134-.049.202-.073.473 1.155 1.474 2.029 2.699 2.348v3.142h2v-3.142c1.227-.319 2.229-1.196 2.701-2.354.092.033.181.071.276.098l3.617.73c1.395.282 2.407 1.519 2.407 2.941z"/><path d="m50 15.435-.001.553 2 .024.001-.577c0-5.591-4.373-10.17-9.955-10.424l-.091 1.998c4.512.205 8.046 3.907 8.046 8.426z"/><path d="m25.487 30.906h2v2h-2z" transform="matrix(.656 -.755 .755 .656 -14.969 30.956)"/><path d="m22.469 28.281h2v2h-2z" transform="matrix(.656 -.755 .755 .656 -14.026 27.776)"/><path d="m19.451 25.656h2v2h-2z" transform="matrix(.656 -.755 .755 .656 -13.084 24.596)"/><path d="m46.725 20.553.167-.143c.704-.604 1.108-1.482 1.108-2.41s-.404-1.806-1.109-2.411l-.166-.142c-4.098-3.512-9.328-5.447-14.725-5.447s-10.627 1.935-14.725 5.447l-.167.143c-.704.604-1.108 1.482-1.108 2.41s.404 1.806 1.109 2.411l.166.142c4.098 3.512 9.328 5.447 14.725 5.447s10.627-1.935 14.725-5.447zm-20.725-2.553c0-3.309 2.691-6 6-6s6 2.691 6 6-2.691 6-6 6-6-2.691-6-6zm19.59-.892c.261.224.41.549.41.892s-.149.668-.41.891l-.167.143c-2.12 1.817-4.578 3.152-7.201 3.983 1.11-1.373 1.778-3.118 1.778-5.017s-.668-3.644-1.778-5.017c2.623.831 5.082 2.166 7.202 3.984zm-27.18 1.784c-.261-.224-.41-.549-.41-.892s.149-.668.41-.891l.167-.143c2.12-1.817 4.578-3.152 7.201-3.983-1.11 1.373-1.778 3.118-1.778 5.017s.668 3.644 1.778 5.017c-2.623-.831-5.082-2.166-7.202-3.984z"/><path d="m32 14c-2.206 0-4 1.794-4 4s1.794 4 4 4 4-1.794 4-4-1.794-4-4-4zm0 6c-1.103 0-2-.897-2-2s.897-2 2-2 2 .897 2 2-.897 2-2 2z"/></g></symbol><symbol id="segmentation" viewBox="0 0 64 64"><title>segmentation</title><g><g><circle cx="32" cy="32" fill="#ff826e" r="17"/></g><g><circle cx="32" cy="32" fill="#ffeaa7" r="11"/></g><g><circle cx="51" cy="51" fill="#ffeaa7" r="11"/></g><g><circle cx="51" cy="12.732" fill="#ffeaa7" r="11"/></g><g><circle cx="12.899" cy="51" fill="#ffeaa7" r="11"/></g><g><circle cx="12.899" cy="12.732" fill="#ffeaa7" r="11"/></g><g><path d="m40.01 51.41c.05 1.4.36 2.73.89 3.95-2.76 1.06-5.76 1.64-8.9 1.64v-4c2.84 0 5.54-.57 8.01-1.59z" fill="#e6e9ed"/></g><g><path d="m32 53v4c-3.14 0-6.14-.58-8.9-1.64.53-1.22.84-2.55.89-3.95 2.47 1.02 5.17 1.59 8.01 1.59z" fill="#e6e9ed"/></g><g><path d="m12.59 23.99c-1.02 2.47-1.59 5.17-1.59 8.01h-4c0-3.14.58-6.14 1.64-8.9 1.22.53 2.55.84 3.95.89z" fill="#e6e9ed"/></g><g><path d="m11 32c0 2.84.57 5.54 1.59 8.01-1.4.05-2.73.36-3.95.89-1.06-2.76-1.64-5.76-1.64-8.9z" fill="#e6e9ed"/></g><g><path d="m32 7v4c-2.84 0-5.54.57-8.01 1.59-.05-1.4-.36-2.73-.89-3.95 2.76-1.06 5.76-1.64 8.9-1.64z" fill="#e6e9ed"/></g><g><path d="m40.9 8.64c-.53 1.22-.84 2.55-.89 3.95-2.47-1.02-5.17-1.59-8.01-1.59v-4c3.14 0 6.14.58 8.9 1.64z" fill="#e6e9ed"/></g><g><path d="m57 32h-4c0-2.84-.57-5.54-1.59-8.01 1.4-.05 2.73-.36 3.95-.89 1.06 2.76 1.64 5.76 1.64 8.9z" fill="#e6e9ed"/></g><g><path d="m53 32h4c0 3.14-.58 6.14-1.64 8.9-1.22-.53-2.55-.84-3.95-.89 1.02-2.47 1.59-5.17 1.59-8.01z" fill="#e6e9ed"/></g><g><path d="m32 11v4c-3.31 0-6.39.97-9 2.6.64-1.4 1-2.96 1-4.6 0-.14 0-.27-.01-.41 2.47-1.02 5.17-1.59 8.01-1.59z" fill="#fc6e51"/></g><g><path d="m40 13c0 1.64.36 3.2 1 4.6-2.61-1.63-5.69-2.6-9-2.6v-4c2.84 0 5.54.57 8.01 1.59-.01.14-.01.27-.01.41z" fill="#fc6e51"/></g><g><path d="m15 32c0 3.31.97 6.39 2.6 9-1.4-.64-2.96-1-4.6-1-.14 0-.27 0-.41.01-1.02-2.47-1.59-5.17-1.59-8.01z" fill="#fc6e51"/></g><g><path d="m17.6 23c-1.63 2.61-2.6 5.69-2.6 9h-4c0-2.84.57-5.54 1.59-8.01.14.01.27.01.41.01 1.64 0 3.2-.36 4.6-1z" fill="#fc6e51"/></g><g><path d="m41 46.4c-.64 1.4-1 2.96-1 4.6 0 .14 0 .27.01.41-2.47 1.02-5.17 1.59-8.01 1.59v-4c3.31 0 6.39-.97 9-2.6z" fill="#fc6e51"/></g><g><path d="m32 49v4c-2.84 0-5.54-.57-8.01-1.59.01-.14.01-.27.01-.41 0-1.64-.36-3.2-1-4.6 2.61 1.63 5.69 2.6 9 2.6z" fill="#fc6e51"/></g><g><path d="m53 32h-4c0-3.31-.97-6.39-2.6-9 1.4.64 2.96 1 4.6 1 .14 0 .27 0 .41-.01 1.02 2.47 1.59 5.17 1.59 8.01z" fill="#fc6e51"/></g><g><path d="m49 32h4c0 2.84-.57 5.54-1.59 8.01-.14-.01-.27-.01-.41-.01-1.64 0-3.2.36-4.6 1 1.63-2.61 2.6-5.69 2.6-9z" fill="#fc6e51"/></g><g><path d="m51.41 23.99c-.14.01-.27.01-.41.01-1.64 0-3.2-.36-4.6-1-1.24-.57-2.35-1.37-3.28-2.33.64-3.79 3.92-6.67 7.88-6.67s7.24 2.88 7.88 6.67c-.99 1.03-2.18 1.86-3.52 2.43-1.22.53-2.55.84-3.95.89z" fill="#b4dd7f"/></g><g><path d="m17.6 23c-1.4.64-2.96 1-4.6 1-.14 0-.27 0-.41-.01-1.4-.05-2.73-.36-3.95-.89-1.34-.57-2.53-1.4-3.52-2.43.64-3.79 3.92-6.67 7.88-6.67s7.24 2.88 7.88 6.67c-.93.96-2.04 1.76-3.28 2.33z" fill="#b4dd7f"/></g><g><path d="m20.88 58.67c-1.99 2.06-4.78 3.33-7.88 3.33s-5.89-1.27-7.88-3.33c.64-3.79 3.92-6.67 7.88-6.67s7.24 2.88 7.88 6.67z" fill="#b4dd7f"/></g><g><path d="m58.88 58.67c-1.99 2.06-4.78 3.33-7.88 3.33s-5.89-1.27-7.88-3.33c.64-3.79 3.92-6.67 7.88-6.67s7.24 2.88 7.88 6.67z" fill="#b4dd7f"/></g><g><path d="m39.88 39.67c-1.99 2.06-4.78 3.33-7.88 3.33s-5.89-1.27-7.88-3.33c.64-3.79 3.92-6.67 7.88-6.67s7.24 2.88 7.88 6.67z" fill="#4fc1e9"/></g><g><circle cx="51" cy="48" fill="#f0d0b4" r="4"/></g><g><circle cx="13" cy="48" fill="#f0d0b4" r="4"/></g><g><circle cx="13" cy="10" fill="#f0d0b4" r="4"/></g><g><circle cx="32" cy="29" fill="#f0d0b4" r="4"/></g><g><circle cx="51" cy="10" fill="#f0d0b4" r="4"/></g></g><path d="m56.585 23.613c3.81-2.013 6.415-6.012 6.415-10.613 0-6.617-5.383-12-12-12-4.601 0-8.6 2.606-10.613 6.416-2.39-.813-4.879-1.267-7.387-1.363v-5.053h-2v5.053c-2.508.096-4.997.549-7.387 1.363-2.013-3.81-6.012-6.416-10.613-6.416-6.617 0-12 5.383-12 12 0 4.601 2.605 8.6 6.415 10.613-.815 2.387-1.274 4.862-1.37 7.387h-5.045v2h5.045c.096 2.525.555 5 1.37 7.387-3.81 2.013-6.415 6.012-6.415 10.613 0 6.617 5.383 12 12 12 4.601 0 8.6-2.605 10.613-6.415 2.387.815 4.862 1.274 7.387 1.37v5.045h2v-5.045c2.525-.096 5-.555 7.387-1.37 2.013 3.81 6.012 6.415 10.613 6.415 6.617 0 12-5.383 12-12 0-4.601-2.605-8.6-6.415-10.613.815-2.387 1.274-4.862 1.37-7.387h5.045v-2h-5.045c-.096-2.525-.555-5-1.37-7.387zm-.63 7.387h-2.003c-.095-2.102-.486-4.16-1.172-6.147.672-.101 1.328-.25 1.959-.457.715 2.137 1.123 4.348 1.216 6.604zm-5.249 8.015c-.772.019-1.527.106-2.257.264.883-1.984 1.394-4.11 1.516-6.279h1.987c-.103 2.062-.519 4.077-1.246 6.015zm-11.691 11.69c-1.939.726-3.968 1.138-6.015 1.24v-1.98c2.169-.122 4.295-.633 6.279-1.516-.158.729-.245 1.484-.264 2.256zm-14.03 0c-.019-.772-.106-1.527-.264-2.256 1.984.883 4.11 1.394 6.279 1.516v1.98c-2.047-.103-4.076-.514-6.015-1.24zm-11.691-11.69c-.728-1.937-1.143-3.952-1.246-6.015h1.987c.122 2.169.633 4.295 1.516 6.279-.729-.159-1.484-.245-2.257-.264zm-3.294-29.015c0-1.654 1.346-3 3-3s3 1.346 3 3-1.346 3-3 3-3-1.346-3-3zm14.985 3.295c1.939-.726 3.968-1.138 6.015-1.24v1.98c-2.169.122-4.295.633-6.279 1.516.158-.729.245-1.484.264-2.256zm14.03 0c.019.772.106 1.527.264 2.256-1.984-.883-4.11-1.394-6.279-1.516v-1.98c2.047.102 4.076.514 6.015 1.24zm8.985-3.295c0-1.654 1.346-3 3-3s3 1.346 3 3-1.346 3-3 3-3-1.346-3-3zm3 13c-2.62 0-5-1.021-6.785-2.675.76-3.114 3.533-5.325 6.785-5.325s6.025 2.211 6.785 5.325c-1.785 1.654-4.165 2.675-6.785 2.675zm-5.324.738c1.343 2.215 2.127 4.702 2.289 7.262h-4.015c-.484-5.819-5.131-10.466-10.95-10.949v-4.015c2.56.162 5.046.946 7.262 2.289 1.166 2.342 3.071 4.247 5.414 5.413zm-13.676 18.262c-2.62 0-5-1.021-6.785-2.675.76-3.114 3.533-5.325 6.785-5.325s6.025 2.211 6.785 5.325c-1.785 1.654-4.165 2.675-6.785 2.675zm-3-13c0-1.654 1.346-3 3-3s3 1.346 3 3-1.346 3-3 3-3-1.346-3-3zm11.305 8.562c-.923-2.249-2.708-4.005-4.925-4.901.989-.914 1.62-2.211 1.62-3.661 0-2.757-2.243-5-5-5s-5 2.243-5 5c0 1.45.631 2.747 1.62 3.661-2.218.896-4.002 2.651-4.925 4.901-1.069-1.592-1.695-3.505-1.695-5.562 0-5.514 4.486-10 10-10s10 4.486 10 10c0 2.057-.626 3.97-1.695 5.562zm-16.567-19.238c2.215-1.343 4.702-2.127 7.262-2.289v4.015c-5.819.484-10.466 5.131-10.949 10.95h-4.015c.162-2.56.946-5.046 2.289-7.262 2.342-1.166 4.247-3.071 5.413-5.414zm-10.738 4.676c-2.62 0-5-1.021-6.785-2.675.76-3.114 3.533-5.325 6.785-5.325s6.025 2.211 6.785 5.325c-1.785 1.654-4.165 2.675-6.785 2.675zm.294 1.985c.772-.019 1.527-.106 2.257-.264-.883 1.984-1.394 4.11-1.516 6.279h-1.987c.103-2.062.519-4.077 1.246-6.015zm5.03 15.277c-1.343-2.215-2.127-4.702-2.289-7.262h4.015c.483 5.819 5.13 10.466 10.949 10.949v4.015c-2.56-.162-5.046-.946-7.262-2.289-1.165-2.342-3.07-4.247-5.413-5.413zm21.938 5.414c-2.215 1.343-4.702 2.127-7.262 2.289v-4.015c5.819-.483 10.466-5.13 10.949-10.949h4.015c-.162 2.56-.946 5.046-2.289 7.262-2.342 1.165-4.247 3.07-5.413 5.413zm9.703-14.676c-.122-2.169-.633-4.295-1.516-6.279.73.159 1.485.245 2.257.264.728 1.937 1.143 3.952 1.246 6.015zm1.035-28c5.514 0 10 4.486 10 10 0 2.057-.626 3.97-1.695 5.562-.923-2.249-2.708-4.005-4.925-4.901.989-.914 1.62-2.211 1.62-3.661 0-2.757-2.243-5-5-5s-5 2.243-5 5c0 1.45.631 2.747 1.62 3.661-2.218.896-4.002 2.651-4.925 4.901-1.069-1.592-1.695-3.505-1.695-5.562 0-5.514 4.486-10 10-10zm-11.396 6.262c-.208.632-.357 1.287-.457 1.96-1.992-.684-4.06-1.072-6.147-1.166v-2.003c2.241.092 4.464.495 6.604 1.209zm-8.604-1.209v2.003c-2.086.094-4.155.482-6.147 1.166-.101-.673-.25-1.328-.457-1.96 2.14-.714 4.363-1.117 6.604-1.209zm-18-5.053c5.514 0 10 4.486 10 10 0 2.057-.626 3.97-1.695 5.562-.923-2.249-2.708-4.005-4.925-4.901.989-.914 1.62-2.211 1.62-3.661 0-2.757-2.243-5-5-5s-5 2.243-5 5c0 1.45.631 2.747 1.62 3.661-2.218.896-4.002 2.651-4.925 4.901-1.069-1.592-1.695-3.505-1.695-5.562 0-5.514 4.486-10 10-10zm-3.739 21.396c.631.208 1.287.357 1.959.457-.686 1.987-1.077 4.045-1.172 6.147h-2.003c.093-2.256.501-4.467 1.216-6.604zm-1.216 8.604h2.003c.095 2.102.486 4.16 1.172 6.147-.672.101-1.328.25-1.959.457-.715-2.137-1.123-4.348-1.216-6.604zm4.955 8c5.514 0 10 4.486 10 10 0 2.057-.626 3.97-1.695 5.562-.923-2.249-2.708-4.005-4.925-4.901.989-.914 1.62-2.211 1.62-3.661 0-2.757-2.243-5-5-5s-5 2.243-5 5c0 1.45.631 2.747 1.62 3.661-2.218.896-4.002 2.651-4.925 4.901-1.069-1.592-1.695-3.505-1.695-5.562 0-5.514 4.486-10 10-10zm-3 7c0-1.654 1.346-3 3-3s3 1.346 3 3-1.346 3-3 3-3-1.346-3-3zm-3.785 10.325c.76-3.114 3.533-5.325 6.785-5.325s6.025 2.211 6.785 5.325c-1.785 1.654-4.165 2.675-6.785 2.675s-5-1.021-6.785-2.675zm18.181-3.587c.208-.631.356-1.286.457-1.958 1.987.686 4.045 1.077 6.147 1.172v1.996c-2.241-.093-4.464-.496-6.604-1.21zm8.604 1.209v-1.996c2.102-.095 4.16-.486 6.147-1.172.101.672.249 1.327.457 1.958-2.14.715-4.363 1.118-6.604 1.21zm11.215 2.378c.76-3.114 3.533-5.325 6.785-5.325s6.025 2.211 6.785 5.325c-1.785 1.654-4.165 2.675-6.785 2.675s-5-1.021-6.785-2.675zm3.785-10.325c0-1.654 1.346-3 3-3s3 1.346 3 3-1.346 3-3 3-3-1.346-3-3zm13 3c0 2.057-.626 3.97-1.695 5.562-.923-2.249-2.708-4.005-4.925-4.901.989-.914 1.62-2.211 1.62-3.661 0-2.757-2.243-5-5-5s-5 2.243-5 5c0 1.45.631 2.747 1.62 3.661-2.218.896-4.002 2.651-4.925 4.901-1.069-1.592-1.695-3.505-1.695-5.562 0-5.514 4.486-10 10-10s10 4.486 10 10zm-6.261-11.396c-.631-.208-1.287-.357-1.959-.457.686-1.987 1.077-4.045 1.172-6.147h2.003c-.093 2.256-.501 4.467-1.216 6.604z"/></symbol><symbol id="inspection" viewBox="0 0 64 64"><title>inspection</title><g><g><path d="m22 36v20h-20v-20h4z" fill="#ff826e"/></g><g><path d="m32 54v2h-6v-20h6v2z" fill="#ff826e"/></g><g><path d="m22 36h4v20h-4z" fill="#fc6e51"/></g><g><path d="m6 2v34h16 4 6v2h5l.24-.24c1.13-1.13 2.65-1.76 4.25-1.76h6.51v-34z" fill="#e6e9ed"/></g><g><path d="m10 6h20v18h-20z" fill="#ffeaa7"/></g><g><path d="m26 22v2h-12v-2c0-3.31 2.69-6 6-6 1.66 0 3.16.67 4.24 1.76 1.09 1.08 1.76 2.58 1.76 4.24z" fill="#b4dd7f"/></g><g><circle cx="20" cy="13" fill="#f0d0b4" r="3"/></g><g><path d="m52 56v2c0 2.21-1.79 4-4 4-1.1 0-2.1-.45-2.83-1.17-.72-.73-1.17-1.73-1.17-2.83v-2-16h6c-.55 0-1.05.22-1.41.59-.37.36-.59.86-.59 1.41 0 1.1.9 2 2 2-.55 0-1.05.22-1.41.59-.37.36-.59.86-.59 1.41 0 1.1.9 2 2 2-.55 0-1.05.22-1.41.59-.37.36-.59.86-.59 1.41 0 1.1.9 2 2 2-.55 0-1.05.22-1.41.59-.37.36-.59.86-.59 1.41 0 1.1.9 2 2 2z" fill="#969faa"/></g><g><path d="m54 52c1.1 0 2 .9 2 2 0 .55-.22 1.05-.59 1.41-.36.37-.86.59-1.41.59h-2-2c-1.1 0-2-.9-2-2 0-.55.22-1.05.59-1.41.36-.37.86-.59 1.41-.59z" fill="#f0d0b4"/></g><g><path d="m54 44c1.1 0 2 .9 2 2 0 .55-.22 1.05-.59 1.41-.36.37-.86.59-1.41.59h-4c-1.1 0-2-.9-2-2 0-.55.22-1.05.59-1.41.36-.37.86-.59 1.41-.59z" fill="#f0d0b4"/></g><g><path d="m54 40c1.1 0 2 .9 2 2 0 .55-.22 1.05-.59 1.41-.36.37-.86.59-1.41.59h-4c-1.1 0-2-.9-2-2 0-.55.22-1.05.59-1.41.36-.37.86-.59 1.41-.59z" fill="#f0d0b4"/></g><g><path d="m54 48c1.1 0 2 .9 2 2 0 .55-.22 1.05-.59 1.41-.36.37-.86.59-1.41.59h-4c-1.1 0-2-.9-2-2 0-.55.22-1.05.59-1.41.36-.37.86-.59 1.41-.59z" fill="#f0d0b4"/></g><g><path d="m44 40v16h-1.58c-.94 0-1.85-.22-2.69-.63l-2.73-1.37h-5v-16h5l.24-.24c1.13-1.13 2.65-1.76 4.25-1.76h6.51 4c.55 0 1 .45 1 1 0 .83-.34 1.58-.88 2.12s-1.29.88-2.12.88z" fill="#f0d0b4"/></g><g><path d="m48 8c7.73 0 14 6.27 14 14s-6.27 14-14 14-14-6.27-14-14 6.27-14 14-14z" fill="#fcd770"/></g><g><circle cx="48" cy="22" fill="#69d6f4" r="10"/></g></g><g><path d="m48 11c-6.065 0-11 4.935-11 11s4.935 11 11 11 11-4.935 11-11-4.935-11-11-11zm0 20c-4.963 0-9-4.038-9-9s4.037-9 9-9 9 4.038 9 9-4.037 9-9 9z"/><path d="m63 22c0-7.933-6.195-14.431-14-14.949v-6.051h-44v34h-4v22h32v-2h3.764l2.522 1.261c.966.483 2.049.739 3.13.739h.584v1c0 2.757 2.243 5 5 5s5-2.243 5-5v-1h1c1.654 0 3-1.346 3-3 0-.771-.301-1.468-.78-2 .48-.532.78-1.229.78-2s-.301-1.468-.78-2c.48-.532.78-1.229.78-2s-.301-1.468-.78-2c.48-.532.78-1.229.78-2 0-1.654-1.346-3-3-3h-.556c.344-.591.556-1.268.556-2 0-.413-.126-.797-.342-1.117 5.473-2.238 9.342-7.614 9.342-13.883zm-56-19h40v4.051c-7.805.518-14 7.016-14 14.949 0 5.596 3.086 10.478 7.641 13.056-1.526.183-2.942.853-4.055 1.944h-3.586v-2h-26zm18 34v18h-2v-18zm-22 0h18v18h-18zm28 18h-4v-18h4zm20 3c0 1.654-1.346 3-3 3s-3-1.346-3-3v-17h2.184c-.112.314-.184.648-.184 1 0 .771.301 1.468.78 2-.48.532-.78 1.229-.78 2s.301 1.468.78 2c-.48.532-.78 1.229-.78 2s.301 1.468.78 2c-.48.532-.78 1.229-.78 2 0 1.654 1.346 3 3 3h1zm4-12c0 .552-.448 1-1 1h-4c-.552 0-1-.448-1-1s.448-1 1-1h4c.552 0 1 .448 1 1zm0 4c0 .552-.448 1-1 1h-4c-.552 0-1-.448-1-1s.448-1 1-1h4c.552 0 1 .448 1 1zm-1 5h-4c-.552 0-1-.448-1-1s.448-1 1-1h4c.552 0 1 .448 1 1s-.448 1-1 1zm1-13c0 .552-.448 1-1 1h-4c-.552 0-1-.448-1-1s.448-1 1-1h4c.552 0 1 .448 1 1zm-3-5c0 1.103-.897 2-2 2h-7.414l-.535.535c-.945.944-2.2 1.465-3.536 1.465h-1.515v2h1.515c1.659 0 3.228-.578 4.485-1.632v13.632h-.584c-.772 0-1.545-.183-2.235-.528l-2.945-1.472h-4.236v-14h4.414l.535-.535c.944-.944 2.2-1.465 3.536-1.465zm-4-2c-7.168 0-13-5.832-13-13s5.832-13 13-13 13 5.832 13 13-5.832 13-13 13z"/><path d="m46 23.586-1.293-1.293-1.414 1.414 2.707 2.707 7.707-7.707-1.414-1.414z"/><path d="m9 25h22v-20h-22zm9-12c0-1.103.897-2 2-2s2 .897 2 2-.897 2-2 2-2-.897-2-2zm2 4c2.757 0 5 2.243 5 5v1h-10v-1c0-2.757 2.243-5 5-5zm-9-10h18v16h-2v-1c0-2.801-1.658-5.216-4.04-6.334.64-.709 1.04-1.638 1.04-2.666 0-2.206-1.794-4-4-4s-4 1.794-4 4c0 1.028.4 1.957 1.04 2.666-2.382 1.118-4.04 3.533-4.04 6.334v1h-2z"/><path d="m9 27h2v2h-2z"/><path d="m13 27h18v2h-18z"/><path d="m9 31h22v2h-22z"/></g></symbol><symbol id="analysis" viewBox="0 0 64 64"><title>analysis</title><g><g><path d="m49 14c3.87 0 7 3.13 7 7s-3.13 7-7 7h-3-6-16-6-5c-2.76 0-5-2.24-5-5s2.24-5 5-5c.02 0 .04.01.06.01-.04-.33-.06-.67-.06-1.01 0-4.97 4.03-9 9-9 1.48 0 2.87.36 4.1 1 1.9-4.13 6.06-7 10.9-7 6.63 0 12 5.37 12 12z" fill="#e6e9ed"/></g><g><circle cx="24" cy="20" fill="#ff826e" r="2"/></g><g><circle cx="32" cy="20" fill="#ff826e" r="2"/></g><g><circle cx="40" cy="20" fill="#ff826e" r="2"/></g><g><path d="m46 28v3l-2.57.65c-.2.64-.47 1.25-.77 1.84l1.36 2.29-4.24 4.24-2.29-1.36c-.59.3-1.2.57-1.84.77l-.65 2.57h-3-3l-.65-2.57c-.64-.2-1.25-.47-1.84-.77l-2.29 1.36-2.02-2.02-2.22-2.22 1.36-2.29c-.3-.59-.57-1.2-.77-1.84l-2.57-.65v-3h6c0 4.42 3.58 8 8 8s8-3.58 8-8z" fill="#fcd770"/></g><g><path d="m36 56h4v6h-4z" fill="#b4dd7f"/></g><g><path d="m36 56v6h-4v-8h4z" fill="#b4dd7f"/></g><g><path d="m32 54v8h-4v-10h4z" fill="#b4dd7f"/></g><g><path d="m62 59v3h-14v-3c0-3.87 3.13-7 7-7 1.94 0 3.68.78 4.95 2.05s2.05 3.01 2.05 4.95z" fill="#4fc1e9"/></g><g><circle cx="55" cy="48" fill="#f0d0b4" r="4"/></g><g><circle cx="12" cy="52" fill="#fcd770" r="10"/></g></g><g><path d="m58.305 51.723c1.031-.917 1.695-2.238 1.695-3.723 0-2.414-1.721-4.434-4-4.899v-3.101c0-1.654-1.346-3-3-3h-8.787l1.064-1.064-1.48-2.49c.147-.317.281-.636.4-.956l2.803-.713v-2.777h2c4.411 0 8-3.589 8-8 0-4.084-3.076-7.463-7.034-7.942-.484-6.73-6.114-12.058-12.966-12.058-4.721 0-9.076 2.596-11.355 6.691-1.163-.459-2.385-.691-3.645-.691-5.514 0-10 4.486-10 10v.083c-2.834.478-5 2.949-5 5.917 0 3.309 2.691 6 6 6h4v2.777l2.802.713c.119.319.252.639.4.956l-1.48 2.49 1.065 1.064h-5.787c-1.654 0-3 1.346-3 3v1.051c-5.598.507-10 5.221-10 10.949 0 6.065 4.935 11 11 11s11-4.935 11-11c0-5.728-4.402-10.442-10-10.949v-1.051c0-.551.449-1 1-1h7.787l2.278 2.278 2.49-1.48c.317.147.636.281.956.4l.712 2.802h2.777v8h-4v12h14v-8h-4v-2h-4v-1-1-8h2.777l.713-2.802c.319-.119.639-.252.956-.4l2.49 1.48 2.277-2.278h10.787c.551 0 1 .449 1 1v3.101c-2.279.465-4 2.484-4 4.899 0 1.485.664 2.806 1.695 3.723-2.765 1.261-4.695 4.045-4.695 7.277v4h16v-4c0-3.232-1.93-6.016-4.695-7.277zm-37.305.277c0 4.962-4.038 9-9 9s-9-4.038-9-9 4.038-9 9-9 9 4.038 9 9zm10 9h-2v-8h2zm-22-38c0-2.187 1.764-3.97 3.944-4l1.232.005-.123-1.11c-.032-.293-.053-.592-.053-.895 0-4.411 3.589-8 8-8 1.275 0 2.502.298 3.647.886l.929.477.437-.949c1.792-3.896 5.712-6.414 9.987-6.414 6.065 0 11 4.935 11 11v1h1c3.309 0 6 2.691 6 6s-2.691 6-6 6h-36c-2.206 0-4-1.794-4-4zm29.92 6c-.488 3.387-3.401 6-6.92 6s-6.432-2.613-6.92-6zm-1.92 28h2v4h-2zm-2-2v6h-2v-6zm4.621-16.236-2.095-1.246-.493.254c-.558.288-1.124.525-1.683.704l-.528.169-.599 2.355h-4.445l-.599-2.354-.528-.169c-.56-.179-1.125-.416-1.683-.704l-.493-.254-2.095 1.246-3.143-3.143 1.246-2.095-.254-.493c-.288-.558-.525-1.124-.704-1.683l-.169-.528-2.356-.6v-1.223h4.059c.5 4.493 4.317 8 8.941 8s8.441-3.507 8.941-8h4.059v1.223l-2.354.599-.169.528c-.179.56-.416 1.125-.704 1.683l-.254.493 1.246 2.095zm15.379 6.236c1.654 0 3 1.346 3 3s-1.346 3-3 3-3-1.346-3-3 1.346-3 3-3zm6 16h-12v-2c0-3.309 2.691-6 6-6s6 2.691 6 6z"/><path d="m11 45v2h-3v3c0 1.654 1.346 3 3 3h2c.551 0 1 .449 1 1v1h-3c-.551 0-1-.449-1-1h-2c0 1.654 1.346 3 3 3v2h2v-2h3v-3c0-1.654-1.346-3-3-3h-2c-.551 0-1-.449-1-1v-1h3c.551 0 1 .449 1 1h2c0-1.654-1.346-3-3-3v-2z"/><path d="m24 17c-1.654 0-3 1.346-3 3s1.346 3 3 3 3-1.346 3-3-1.346-3-3-3zm0 4c-.551 0-1-.449-1-1s.449-1 1-1 1 .449 1 1-.449 1-1 1z"/><path d="m32 17c-1.654 0-3 1.346-3 3s1.346 3 3 3 3-1.346 3-3-1.346-3-3-3zm0 4c-.551 0-1-.449-1-1s.449-1 1-1 1 .449 1 1-.449 1-1 1z"/><path d="m40 17c-1.654 0-3 1.346-3 3s1.346 3 3 3 3-1.346 3-3-1.346-3-3-3zm0 4c-.551 0-1-.449-1-1s.449-1 1-1 1 .449 1 1-.449 1-1 1z"/><path d="m37 5v2c3.86 0 7 3.14 7 7 0 .297-.019.589-.054.876l1.984.248c.047-.37.07-.748.07-1.124 0-4.962-4.038-9-9-9z"/></g></symbol><symbol id="advertising-1" viewBox="0 0 64 64"><title>advertising-1</title><g><g><path d="m14 38h4 1c1.66 0 3 1.34 3 3 0 .83-.34 1.58-.88 2.12s-1.29.88-2.12.88h-1-4-4-4-1c-1.66 0-3-1.34-3-3 0-.83.34-1.58.88-2.12s1.29-.88 2.12-.88h1 4z" fill="#ffc729"/></g><g><path d="m14 50h4 1c1.66 0 3 1.34 3 3 0 .83-.34 1.58-.88 2.12s-1.29.88-2.12.88h-1-4-4-4-1c-1.66 0-3-1.34-3-3 0-.83.34-1.58.88-2.12s1.29-.88 2.12-.88h1 4z" fill="#ffc729"/></g><g><path d="m34 56h2.52c1.3 1.87 3.05 3.41 5.09 4.46-.5.92-1.49 1.54-2.61 1.54h-14c-1.66 0-3-1.34-3-3 0-.83.34-1.58.88-2.12s1.29-.88 2.12-.88h1 4z" fill="#ffc729"/></g><g><path d="m14 44h4 1c1.66 0 3 1.34 3 3 0 .83-.34 1.58-.88 2.12s-1.29.88-2.12.88h-1-4-4-4-1c-1.66 0-3-1.34-3-3 0-.83.34-1.58.88-2.12s1.29-.88 2.12-.88h1 4z" fill="#fcd770"/></g><g><path d="m14 56h4 1c1.66 0 3 1.34 3 3 0 .83-.34 1.58-.88 2.12s-1.29.88-2.12.88h-14c-1.66 0-3-1.34-3-3 0-.83.34-1.58.88-2.12s1.29-.88 2.12-.88h1 4z" fill="#fcd770"/></g><g><path d="m30 50h4v-2c0 2.98.93 5.73 2.52 8h-2.52-4-4-1c-1.66 0-3-1.34-3-3 0-.83.34-1.58.88-2.12s1.29-.88 2.12-.88h1z" fill="#fcd770"/></g><g><path d="m34 50h-4-4v-21h2 6v5 14z" fill="#969faa"/></g><g><path d="m38 29.22v2.78c0 1.1-.9 2-2 2h-2v-5h.79c1.08 0 2.15.07 3.21.22z" fill="#aab2bd"/></g><g><path d="m50 36h2c.66 0 1.25-.32 1.61-.82 4.94 2.16 8.39 7.08 8.39 12.82 0 7.73-6.27 14-14 14-2.3 0-4.47-.56-6.39-1.54-2.04-1.05-3.79-2.59-5.09-4.46-1.59-2.27-2.52-5.02-2.52-8 0-7.73 6.27-14 14-14 0 1.1.9 2 2 2z" fill="#ffc729"/></g><g><circle cx="48" cy="48" fill="#fcd770" r="10"/></g><g><path d="m48 5v28c-2.44-1.63-5.16-2.79-8-3.42v-6.58c0-1.1-.9-2-2-2h-2c-2.21 0-4-1.79-4-4v-8h2.79c4.7 0 9.3-1.39 13.21-4z" fill="#e6e9ed"/></g><g><path d="m28 29v-20h4v8c0 2.21 1.79 4 4 4h2c1.1 0 2 .9 2 2v6.58c-.66-.15-1.33-.27-2-.36-1.06-.15-2.13-.22-3.21-.22h-.79z" fill="#ccd1d9"/></g><g><path d="m28 9v20h-2c-2.61 0-4.84-1.67-5.65-4h-.01c-.22-.63-.34-1.3-.34-2v-2-4-2c0-.7.12-1.37.34-2h.01c.81-2.33 3.04-4 5.65-4z" fill="#ff826e"/></g><g><path d="m53.61 35.18c-.36.5-.95.82-1.61.82h-2c-1.1 0-2-.9-2-2v-1-28-1c0-1.1.9-2 2-2h2c1.1 0 2 .9 2 2v30c0 .44-.14.85-.39 1.18z" fill="#ff826e"/></g></g><g><path d="m49 45c.551 0 1 .449 1 1h2c0-1.654-1.346-3-3-3v-2h-2v2h-3v3c0 1.654 1.346 3 3 3h2c.551 0 1 .449 1 1v1h-3c-.551 0-1-.449-1-1h-2c0 1.654 1.346 3 3 3v2h2v-2h3v-3c0-1.654-1.346-3-3-3h-2c-.551 0-1-.449-1-1v-1z"/><path d="m48 37c-6.065 0-11 4.935-11 11s4.935 11 11 11 11-4.935 11-11-4.935-11-11-11zm0 20c-4.962 0-9-4.038-9-9s4.038-9 9-9 9 4.038 9 9-4.038 9-9 9z"/><path d="m31 24h2v2h-2z"/><path d="m35 24h2v2h-2z"/><path d="m54.913 34.687c.053-.222.087-.45.087-.687v-30c0-1.654-1.346-3-3-3h-2c-1.654 0-3 1.346-3 3v.442c-3.659 2.322-7.866 3.558-12.211 3.558h-8.789c-3.86 0-7 3.14-7 7v8c0 3.519 2.613 6.432 6 6.92v19.08c-1.2 0-2.266.542-3 1.382-.119-.136-.246-.263-.382-.382.84-.734 1.382-1.8 1.382-3s-.542-2.266-1.382-3c.84-.734 1.382-1.8 1.382-3 0-2.206-1.794-4-4-4h-14c-2.206 0-4 1.794-4 4 0 1.2.542 2.266 1.382 3-.84.734-1.382 1.8-1.382 3s.542 2.266 1.382 3c-.84.734-1.382 1.8-1.382 3s.542 2.266 1.382 3c-.84.734-1.382 1.8-1.382 3 0 2.206 1.794 4 4 4h14c1.2 0 2.266-.542 3-1.382.734.84 1.8 1.382 3 1.382h14c1.136 0 2.192-.479 2.939-1.291 1.856.824 3.903 1.291 6.061 1.291 8.271 0 15-6.729 15-15 0-5.643-3.138-10.746-8.087-13.313zm-5.913-30.687c0-.551.449-1 1-1h2c.551 0 1 .449 1 1v30c0 .551-.449 1-1 1h-2c-.551 0-1-.449-1-1zm-13 18h2c.551 0 1 .449 1 1v5.372c-1.383-.237-2.789-.372-4.211-.372h-5.789v-18h2v7c0 2.757 2.243 5 5 5zm1 8.12v1.88c0 .551-.449 1-1 1h-1v-2.992c.671.006 1.337.048 2 .112zm-2 4.88h1c1.654 0 3-1.346 3-3v-1.595c2.554.478 5.007 1.384 7.268 2.703-4.824.558-8.951 3.413-11.268 7.44zm12-28.212v24.423c-1.893-1.072-3.911-1.869-6-2.408v-5.803c0-1.654-1.346-3-3-3h-2c-1.654 0-3-1.346-3-3v-7h1.789c4.305 0 8.491-1.106 12.211-3.212zm-24.974 19.212h2.974v-2h-3.899c-.066-.323-.101-.658-.101-1v-1h4v-2h-4v-2h4v-2h-4v-1c0-.342.035-.677.101-1h3.899v-2h-2.974c.914-1.207 2.348-2 3.974-2h1v18h-1c-1.627 0-3.061-.793-3.974-2zm4.974 4h6v19h-6zm-2 21v2h2v-2h2v2h2v-2h2v2h.875c.245.69.529 1.361.868 2h-9.743c-1.103 0-2-.897-2-2s.897-2 2-2zm-3 5.382c-.119-.136-.246-.263-.382-.382.136-.119.263-.246.382-.382.119.136.246.263.382.382-.136.119-.263.246-.382.382zm-19-15.382c0-1.103.897-2 2-2v2h2v-2h2v2h2v-2h2v2h2v-2h2v2h2v-2c1.103 0 2 .897 2 2s-.897 2-2 2h-14c-1.103 0-2-.897-2-2zm0 6c0-1.103.897-2 2-2v2h2v-2h2v2h2v-2h2v2h2v-2h2v2h2v-2c1.103 0 2 .897 2 2s-.897 2-2 2h-14c-1.103 0-2-.897-2-2zm0 6c0-1.103.897-2 2-2v2h2v-2h2v2h2v-2h2v2h2v-2h2v2h2v-2c1.103 0 2 .897 2 2s-.897 2-2 2h-14c-1.103 0-2-.897-2-2zm16 8h-14c-1.103 0-2-.897-2-2s.897-2 2-2v2h2v-2h2v2h2v-2h2v2h2v-2h2v2h2v-2c1.103 0 2 .897 2 2s-.897 2-2 2zm20 0h-14c-1.103 0-2-.897-2-2s.897-2 2-2v2h2v-2h2v2h2v-2h2v2h2v-2h1.029c1.104 1.465 2.466 2.719 4.023 3.698-.311.193-.672.302-1.052.302zm9 0c-7.168 0-13-5.832-13-13 0-6.897 5.403-12.541 12.197-12.959.425 1.14 1.516 1.959 2.803 1.959h2c.684 0 1.308-.239 1.814-.626 4.39 2.194 7.186 6.668 7.186 11.626 0 7.168-5.832 13-13 13z"/></g></symbol><symbol id="targeting" viewBox="0 0 64 64"><title>targeting</title><g><g><path d="m49 60c0 .55-.22 1.05-.59 1.41-.36.37-.86.59-1.41.59h-30c-1.1 0-2-.9-2-2s.45-2.1 1.17-2.83c.73-.72 1.73-1.17 2.83-1.17h3 20 3c2.21 0 4 1.79 4 4z" fill="#969faa"/></g><g><path d="m42 56h-20c1.87-1.25 3-3.35 3-5.61v-.39h14v.39c0 2.26 1.13 4.36 3 5.61z" fill="#aab2bd"/></g><g><path d="m58 50h-52c-2.209 0-4-1.791-4-4v-34c0-2.209 1.791-4 4-4h52c2.209 0 4 1.791 4 4v34c0 2.209-1.791 4-4 4z" fill="#ccd1d9"/></g><g><path d="m57 42h-50c-.552 0-1-.448-1-1v-28c0-.552.448-1 1-1h50c.552 0 1 .448 1 1v28c0 .552-.448 1-1 1z" fill="#69d6f4"/></g><g><path d="m20.9 8.1-.9-2.1h-9l.86 2 1.71 4 .43 1-3 7h9l3-7z" fill="#d3a06c"/></g><g><path d="m10 24h6v18h-6z" fill="#b4dd7f"/></g><g><path d="m20 30h6v12h-6z" fill="#b4dd7f"/></g><g><path d="m30 36h6v6h-6z" fill="#b4dd7f"/></g><g><path d="m48 26v1c0 1.38-.56 2.63-1.46 3.54-.91.9-2.16 1.46-3.54 1.46-2.76 0-5-2.24-5-5v-1z" fill="#ccd1d9"/></g><g><path d="m32 13c0-.58.05-1.16.14-1.75.18-1.15.54-2.25 1.06-3.25 1.64-3.21 4.85-5.52 8.53-5.93 4.8-.53 9.07 2.02 11.07 5.93.62 1.22 1.03 2.57 1.15 4 .03.33.05.66.05 1 0 3.45-1.59 6.53-4.08 8.54-1.2.97-1.92 2.4-1.92 3.93v.53h-10v-.52c0-1.56-.76-2.99-1.96-3.97-2.47-2.02-4.04-5.08-4.04-8.51z" fill="#ffeaa7"/></g><g><circle cx="43" cy="13" fill="#fcd770" r="7"/></g></g><g><path d="m7 45h2v2h-2z"/><path d="m15 45h2v2h-2z"/><path d="m11 45h2v2h-2z"/><path d="m58 7h-4.611c-.63-1.092-1.434-2.09-2.392-2.947-2.541-2.273-5.959-3.356-9.375-2.976-3.785.423-7.118 2.726-8.996 5.923h-11.11l-.857-2h-11.176l.857 2h-4.34c-2.757 0-5 2.243-5 5v34c0 2.757 2.243 5 5 5h17.962c-.168 1.595-.997 3.041-2.296 4h-2.666c-2.757 0-5 2.243-5 5 0 1.654 1.346 3 3 3h30c1.654 0 3-1.346 3-3 0-2.757-2.243-5-5-5h-2.666c-1.299-.959-2.128-2.405-2.296-4h17.962c2.757 0 5-2.243 5-5v-34c0-2.757-2.243-5-5-5zm-23 34h-4v-4h4zm-6-6v6h-2v-12h-8v12h-2v-18h-8v18h-2v-28h5.912l-3.429 8h11.176l3-7h7.396c.264 3.212 1.784 6.181 4.35 8.28 1.014.829 1.595 1.993 1.595 3.195v1.525c0 3.309 2.691 6 6 6s6-2.691 6-6v-1.53c0-1.207.563-2.355 1.544-3.149 2.832-2.291 4.456-5.689 4.456-9.321h2v28h-20v-6zm-4 6h-4v-10h4zm-10 0h-4v-16h4zm-.341-27h6.824l-2.143 5h-6.824zm32.341 13c0 2.206-1.794 4-4 4s-4-1.794-4-4zm-5.155-23.936c.392-.043.782-.065 1.169-.065 2.466 0 4.793.883 6.65 2.545 2.12 1.896 3.336 4.614 3.336 7.456 0 3.026-1.354 5.856-3.714 7.766-1.327 1.073-2.128 2.597-2.259 4.234h-8.055c-.135-1.63-.952-3.165-2.301-4.268-2.092-1.712-3.358-4.118-3.617-6.732h2.016c.495 3.94 3.859 7 7.931 7 4.411 0 8-3.589 8-8s-3.589-8-8-8c-4.072 0-7.436 3.06-7.931 7h-2c.019-.199.023-.398.054-.598.67-4.341 4.337-7.847 8.721-8.338zm-4.755 8.936c.478-2.833 2.942-5 5.91-5 3.309 0 6 2.691 6 6s-2.691 6-6 6c-2.967 0-5.431-2.167-5.91-5h7.91v-2zm-5.403-3c-.242.676-.428 1.376-.539 2.097-.047.302-.057.602-.081.903h-7.407l-1.286-3zm-12.346-2 2.143 5h-6.824l-2.143-5zm28.659 53c0 .551-.448 1-1 1h-30c-.552 0-1-.449-1-1 0-1.654 1.346-3 3-3h26c1.654 0 3 1.346 3 3zm-8.47-5h-15.06c.858-1.155 1.378-2.536 1.492-4h12.075c.115 1.464.635 2.845 1.493 4zm21.47-9c0 1.654-1.346 3-3 3h-52c-1.654 0-3-1.346-3-3v-34c0-1.654 1.346-3 3-3h5.198l.857 2h-5.055c-1.103 0-2 .897-2 2v28c0 1.103.897 2 2 2h50c1.103 0 2-.897 2-2v-28c0-1.103-.897-2-2-2h-2.185c-.116-.683-.286-1.351-.515-2h3.7c1.654 0 3 1.346 3 3z"/><path d="m39 35h2v2h-2z"/><path d="m43 35h12v2h-12z"/></g></symbol><symbol id="advertisement" viewBox="0 0 64 64"><title>advertisement</title><g><g><path d="m28 12v6 2h-5l-3.62 4.52c-.24.3-.61.48-.99.48h-.11c-.71 0-1.28-.57-1.28-1.28v-3.72h-7c-1.1 0-2-.9-2-2v-12c0-1.1.9-2 2-2h20c1.1 0 2 .9 2 2v4h-2c-1.1 0-2 .9-2 2z" fill="#f0d0b4"/></g><g><path d="m62 4v12c0 1.1-.9 2-2 2h-3v3.72c0 .71-.57 1.28-1.28 1.28-.45 0-.86-.24-1.09-.62l-2.63-4.38v-6c0-1.1-.9-2-2-2h-12v-6c0-1.1.9-2 2-2h20c1.1 0 2 .9 2 2z" fill="#f0d0b4"/></g><g><path d="m28 18v-6c0-1.1.9-2 2-2h2 6 12c1.1 0 2 .9 2 2v6h-3-18z" fill="#e6e9ed"/></g><g><path d="m32 22c-1.1 0-2 .9-2 2v1c-.65.43-1.32.83-2 1.19v-6.19-2h3 18 3v6c0 1.1-.9 2-2 2h-3l-2.63 4.38c-.23.38-.64.62-1.09.62-.71 0-1.28-.57-1.28-1.28v-3.72h-6v-2c0-1.1-.9-2-2-2z" fill="#e6e9ed"/></g><g><path d="m16 59.53c0 .68-.28 1.3-.72 1.75-.45.44-1.07.72-1.75.72h-3.06c-1.36 0-2.47-1.11-2.47-2.47v-10.53h2 4v8l.63.32c.84.42 1.37 1.27 1.37 2.21z" fill="#969faa"/></g><g><path d="m28 26.19c.68-.36 1.35-.76 2-1.19v28c-2.44-1.63-5.16-2.79-8-3.42v-6.58c0-1.1-.9-2-2-2h-2c-2.21 0-4-1.79-4-4v-8h2.79c3.92 0 7.77-.97 11.21-2.81z" fill="#e6e9ed"/></g><g><path d="m22 43v6.58c-1.7-.38-3.45-.58-5.21-.58h-2.79-4v-20h4v8c0 2.21 1.79 4 4 4h2c1.1 0 2 .9 2 2z" fill="#ccd1d9"/></g><g><path d="m2.35 33c.81-2.33 3.04-4 5.65-4h2v20h-2c-2.61 0-4.84-1.67-5.65-4h-.01c-.22-.63-.34-1.3-.34-2v-2-4-2c0-.7.12-1.37.34-2z" fill="#ff826e"/></g><g><path d="m36 46v8c0 1.1-.9 2-2 2h-2c-1.1 0-2-.9-2-2v-1-28-1c0-1.1.9-2 2-2h2c1.1 0 2 .9 2 2v2 6z" fill="#ff826e"/></g><g><path d="m42 34v10l-6 2v-14z" fill="#fcd770"/></g></g><g><path d="m13 44h2v2h-2z"/><path d="m17 44h2v2h-2z"/><path d="m45 38h8v2h-8z"/><path d="m44.877 33h8.246v2h-8.246z" transform="matrix(.97 -.243 .243 .97 -6.786 12.906)"/><path d="m48 39.877h2v8.246h-2z" transform="matrix(.243 -.97 .97 .243 -5.571 80.865)"/><path d="m60 1h-20c-1.654 0-3 1.346-3 3v5h-4v-3c0-1.654-1.346-3-3-3h-20c-1.654 0-3 1.346-3 3v12c0 1.654 1.346 3 3 3h6v2.723c0 1.256 1.021 2.277 2.277 2.277h.109c.696 0 1.344-.312 1.778-.855l3.316-4.145h3.52v4.574c-3.16 1.585-6.638 2.426-10.211 2.426h-8.789c-3.86 0-7 3.14-7 7v8c0 3.519 2.613 6.432 6 6.92v9.608c0 1.914 1.558 3.472 3.472 3.472h3.056c1.914 0 3.472-1.558 3.472-3.472 0-1.324-.736-2.514-1.919-3.105l-.081-.041v-6.382h1.789c4.345 0 8.552 1.236 12.211 3.558v.442c0 1.654 1.346 3 3 3h2c1.654 0 3-1.346 3-3v-7.279l6-2v-11.442l-6-2v-4.279h4v2.723c0 1.256 1.021 2.277 2.277 2.277.795 0 1.543-.424 1.953-1.105l2.336-3.895h2.434c1.654 0 3-1.346 3-3v-2.39l.771 1.284c.409.682 1.157 1.106 1.952 1.106 1.256 0 2.277-1.021 2.277-2.277v-2.723h2c1.654 0 3-1.346 3-3v-12c0-1.654-1.346-3-3-3zm-37.48 18-3.917 4.896c-.054.066-.132.104-.217.104h-.109c-.153 0-.277-.124-.277-.277v-4.723h-8c-.551 0-1-.449-1-1v-12c0-.551.449-1 1-1h20c.551 0 1 .449 1 1v3h-1c-1.654 0-3 1.346-3 3v7zm-18.494 27h2.974v-2h-3.899c-.066-.323-.101-.658-.101-1v-1h4v-2h-4v-2h4v-2h-4v-1c0-.342.035-.677.101-1h3.899v-2h-2.974c.913-1.207 2.347-2 3.974-2h1v18h-1c-1.627 0-3.061-.793-3.974-2zm10.161 12.211c.501.251.813.755.813 1.317 0 .811-.661 1.472-1.472 1.472h-3.056c-.811 0-1.472-.661-1.472-1.472v-9.528h4v7.618zm-3.187-10.211v-18h2v7c0 2.757 2.243 5 5 5h2c.551 0 1 .449 1 1v5.372c-1.383-.237-2.789-.372-4.211-.372zm12 .803v-5.803c0-1.654-1.346-3-3-3h-2c-1.654 0-3-1.346-3-3v-7h1.789c4.305 0 8.491-1.106 12.211-3.212v24.423c-1.893-1.071-3.911-1.868-6-2.408zm12 5.197c0 .551-.449 1-1 1h-2c-.551 0-1-.449-1-1v-30c0-.551.449-1 1-1h2c.551 0 1 .449 1 1zm6-19.279v8.559l-4 1.333v-11.225zm10-10.721c0 .551-.449 1-1 1h-3.566l-2.919 4.865c-.128.215-.515.108-.515-.142v-4.723h-6v-1c0-1.654-1.346-3-3-3h-2c-1.654 0-3 1.346-3 3v-12c0-.551.449-1 1-1h20c.551 0 1 .449 1 1zm10-8c0 .551-.449 1-1 1h-4v4.723c0 .25-.386.356-.515.142l-2.485-4.142v-5.723c0-1.654-1.346-3-3-3h-11v-5c0-.551.449-1 1-1h20c.551 0 1 .449 1 1z"/><path d="m31 13h2v2h-2z"/><path d="m35 13h14v2h-14z"/><path d="m31 17h18v2h-18z"/><path d="m47 21h2v2h-2z"/><path d="m39 21h2v2h-2z"/><path d="m43 21h2v2h-2z"/><path d="m11 7h2v2h-2z"/><path d="m15 7h10v2h-10z"/><path d="m11 11h14v2h-14z"/><path d="m11 15h14v2h-14z"/><path d="m41 5h18v2h-18z"/><path d="m55 9h4v2h-4z"/><path d="m55 13h4v2h-4z"/></g></symbol><symbol id="development" viewBox="0 0 64 64"><title>development</title><g><g><path d="m62 40v6l-2.45.82c-.42 1.86-1.16 3.61-2.15 5.18l1.16 2.31-4.25 4.25-2.31-1.16c-1.57.99-3.32 1.73-5.18 2.15l-.82 2.45h-6l-.82-2.45c-1.86-.42-3.61-1.16-5.18-2.15l-2.31 1.16-1.82-1.82c.75-.83 1.42-1.75 1.99-2.73.48-.83.89-1.71 1.21-2.63 2.38 2.82 5.94 4.62 9.93 4.62 7.18 0 13-5.82 13-13s-5.82-13-13-13c-5.1 0-9.49 2.94-11.63 7.21-1.23-1.88-2.85-3.48-4.75-4.7l5.07-5.07 2.31 1.16c1.57-.99 3.32-1.73 5.18-2.15l.82-2.45h6l.82 2.45c1.86.42 3.61 1.16 5.18 2.15l2.31-1.16 4.25 4.25-1.16 2.31c.99 1.57 1.73 3.32 2.15 5.18z" fill="#ffc729"/></g><g><circle cx="18" cy="46" fill="#69d6f4" r="16"/></g><g><path d="m34 46c0-2.92-.78-5.66-2.14-8.01-.16-.27-.32-.53-.49-.78 2.14-4.27 6.53-7.21 11.63-7.21 7.18 0 13 5.82 13 13s-5.82 13-13 13c-3.99 0-7.55-1.8-9.93-4.62.6-1.68.93-3.49.93-5.38zm0-3c0 4.97 4.03 9 9 9s9-4.03 9-9-4.03-9-9-9-9 4.03-9 9z" fill="#fcd770"/></g><g><path d="m18 2s6 5 6 9-6 7-6 7-6-3-6-7 6-9 6-9z" fill="#a0d468"/></g><g><path d="m24 19h4c0 1.66-.67 3.16-1.76 4.24-1.08 1.09-2.58 1.76-4.24 1.76h-4c0-1.66.67-3.16 1.76-4.24 1.08-1.09 2.58-1.76 4.24-1.76z" fill="#b4dd7f"/></g><g><path d="m18 26h-4c-1.66 0-3.16-.67-4.24-1.76-1.09-1.08-1.76-2.58-1.76-4.24h4c1.66 0 3.16.67 4.24 1.76 1.09 1.08 1.76 2.58 1.76 4.24z" fill="#b4dd7f"/></g></g><g><path d="m60.394 38.411c-.411-1.561-1.032-3.057-1.852-4.46l1.231-2.461-5.263-5.262-2.461 1.23c-1.403-.819-2.899-1.44-4.46-1.851l-.868-2.607h-7.441l-.869 2.606c-1.561.411-3.057 1.032-4.46 1.851l-2.461-1.23-5.041 5.041c-2.219-1.277-4.748-2.06-7.448-2.218v-2.05-1h3c3.859 0 7-3.14 7-7v-1h-5c-1.958 0-3.728.81-5 2.111v-1.517c1.578-.899 6-3.759 6-7.594 0-4.343-5.709-9.226-6.359-9.768l-.642-.534-.641.534c-.65.542-6.359 5.425-6.359 9.768 0 3.834 4.422 6.694 6 7.594v2.517c-1.272-1.301-3.042-2.111-5-2.111h-5v1c0 3.86 3.141 7 7 7h3v2.051c-8.908.522-16 7.913-16 16.949 0 9.374 7.626 17 17 17 4.615 0 8.8-1.854 11.866-4.849l1.623 1.622 2.461-1.23c1.403.819 2.899 1.44 4.46 1.851l.869 2.606h7.441l.869-2.606c1.561-.411 3.057-1.032 4.46-1.851l2.461 1.23 5.263-5.262-1.231-2.461c.819-1.403 1.44-2.899 1.852-4.46l2.606-.869v-7.441zm-36.394-18.411h2.899c-.465 2.279-2.484 4-4.899 4h-2.899c.464-2.279 2.484-4 4.899-4zm-10 5c-2.415 0-4.435-1.721-4.899-4h2.899c2.415 0 4.435 1.721 4.899 4zm-1-14c0-2.553 3.178-5.998 5-7.669 1.822 1.671 5 5.116 5 7.669 0 2.091-2.248 4.074-4 5.247v-3.833l2.707-2.707-1.414-1.414-1.293 1.293v-3.586h-2v5l-1.2-1.6-1.6 1.2 2.8 3.733v1.916c-1.752-1.169-4-3.15-4-5.249zm18.256 42h-5.034c.43-1.84.688-3.861.752-6h5.975c-.143 2.155-.732 4.188-1.693 6zm-13.256 8c-2.232 0-4.254-2.387-5.546-6h11.092c-1.292 3.613-3.314 6-5.546 6zm-6.159-8c-.462-1.821-.746-3.858-.816-6h13.951c-.07 2.142-.354 4.179-.816 6zm-8.79-6h5.975c.063 2.139.322 4.16.752 6h-5.034c-.961-1.812-1.55-3.845-1.693-6zm20.495-10h-4.546v-5.821c1.829.591 3.451 2.758 4.546 5.821zm-6.546-5.821v5.821h-4.546c1.095-3.063 2.717-5.23 4.546-5.821zm7.159 7.821c.462 1.821.746 3.858.816 6h-13.951c.07-2.142.354-4.179.816-6zm8.79 6h-5.975c-.063-2.139-.322-4.16-.752-6h5.034c.961 1.812 1.55 3.845 1.693 6zm-23.923 0h-5.975c.143-2.155.732-4.188 1.693-6h5.034c-.43 1.84-.689 3.861-.752 6zm25.744 3.667c1.805 2.614 4.819 4.333 8.23 4.333 5.514 0 10-4.486 10-10s-4.486-10-10-10c-4.251 0-7.882 2.672-9.326 6.421-.326-.775-.724-1.51-1.157-2.222 2.119-3.835 6.085-6.199 10.483-6.199 6.617 0 12 5.383 12 12s-5.383 12-12 12c-3.355 0-6.523-1.412-8.795-3.87.253-.796.431-1.622.565-2.463zm.23-5.667c0-4.411 3.589-8 8-8s8 3.589 8 8-3.589 8-8 8-8-3.589-8-8zm-9.336-6c-.658-2.023-1.528-3.762-2.566-5.089 2.759 1.002 5.137 2.785 6.874 5.089zm-12.762-5.089c-1.038 1.327-1.908 3.066-2.566 5.089h-4.308c1.737-2.304 4.115-4.087 6.874-5.089zm-6.874 23.089h4.308c.658 2.023 1.528 3.762 2.566 5.089-2.759-1.002-5.137-2.785-6.874-5.089zm17.07 5.089c1.038-1.327 1.908-3.066 2.566-5.089h4.308c-1.737 2.304-4.115 4.087-6.874 5.089zm37.902-14.81-2.294.765-.126.547c-.396 1.725-1.078 3.367-2.026 4.881l-.298.476 1.084 2.168-3.224 3.223-2.167-1.083-.477.298c-1.514.949-3.156 1.63-4.881 2.026l-.548.125-.764 2.295h-4.559l-.765-2.294-.548-.125c-1.725-.396-3.367-1.078-4.881-2.026l-.477-.298-2.167 1.083-.669-.668c.863-1.067 1.589-2.244 2.176-3.5 2.591 2.448 6.012 3.828 9.611 3.828 7.72 0 14-6.28 14-14s-6.28-14-14-14c-4.805 0-9.167 2.418-11.734 6.397-.905-1.13-1.956-2.134-3.116-3.002l3.734-3.734 2.167 1.083.477-.298c1.514-.949 3.156-1.63 4.881-2.026l.548-.125.764-2.295h4.559l.765 2.294.548.125c1.725.396 3.367 1.078 4.881 2.026l.477.298 2.167-1.083 3.224 3.223-1.084 2.168.298.476c.948 1.514 1.63 3.156 2.026 4.881l.126.547 2.292.766z"/><path d="m42 5.414v15.586h2v-15.586l2.293 2.293 1.414-1.414-4.707-4.707-4.707 4.707 1.414 1.414z"/><path d="m46.707 14.707 2.293-2.293v10.586h2v-10.586l2.293 2.293 1.414-1.414-4.707-4.707-4.707 4.707z"/><path d="m35 12.414v10.586h2v-10.586l2.293 2.293 1.414-1.414-4.707-4.707-4.707 4.707 1.414 1.414z"/></g></symbol><symbol id="notification" viewBox="0 0 64 64"><title>notification</title><g><g><path d="m28 10.45c1.49-.34 3.05-.5 4.66-.44 1.15.04 2.27.19 3.34.45 6.88 1.59 12.17 7.25 13.61 14.21-3.29 1.33-5.61 4.56-5.61 8.33 0 3.92 2.5 7.25 6 8.48v8.52h1c1.66 0 3 1.34 3 3s-1.34 3-3 3h-13-12-13c-1.66 0-3-1.34-3-3s1.34-3 3-3h1v-8h12v-18h-11.54c1.53-6.73 6.81-12.02 13.54-13.55z" fill="#fcd770"/></g><g><path d="m53 24c4.97 0 9 4.03 9 9s-4.03 9-9 9c-1.05 0-2.06-.18-3-.52-3.5-1.23-6-4.56-6-8.48 0-3.77 2.32-7 5.61-8.33 1.04-.43 2.19-.67 3.39-.67z" fill="#ccd1d9"/></g><g><path d="m26 56h12c0 3.31-2.69 6-6 6s-6-2.69-6-6z" fill="#ff826e"/></g><g><path d="m26 24v18l-9.03-9.03c.15-.11.3-.24.44-.38z" fill="#dfb28b"/></g><g><path d="m26 24-8.59 8.59c-.14.14-.29.27-.44.38-.84.67-1.89 1.03-2.97 1.03s-2.13-.36-2.97-1.03c-.15-.11-.3-.24-.44-.38l-8.59-8.59h12.46z" fill="#cf9e76"/></g><g><path d="m26 42h-12-12l9.03-9.03c.84.67 1.89 1.03 2.97 1.03s2.13-.36 2.97-1.03z" fill="#d3a06c"/></g><g><path d="m11.03 32.97-9.03 9.03v-18l8.59 8.59c.14.14.29.27.44.38z" fill="#dfb28b"/></g></g><g><circle cx="53" cy="38" r="1"/><path d="m52 27h2v8h-2z"/><path d="m53 43c5.514 0 10-4.486 10-10s-4.486-10-10-10c-.93 0-1.827.137-2.682.376-1.786-6.758-6.902-11.905-13.318-13.686v-3.69c0-2.757-2.243-5-5-5s-5 2.243-5 5v3.694c-6.367 1.747-11.511 6.727-13.302 13.306h-12.698v20h12v6c-2.206 0-4 1.794-4 4s1.794 4 4 4h12.08c.488 3.387 3.401 6 6.92 6s6.432-2.613 6.92-6h12.08c2.206 0 4-1.794 4-4s-1.794-4-4-4v-6.202c.646.132 1.315.202 2 .202zm8-10c0 4.411-3.589 8-8 8s-8-3.589-8-8 3.589-8 8-8 8 3.589 8 8zm-32-27c0-1.654 1.346-3 3-3s3 1.346 3 3v3.255c-.758-.122-1.525-.215-2.308-.243-1.256-.043-2.489.049-3.692.242zm-19.414 27-6.586 6.586v-13.172zm1.571 1.257c.859.482 1.831.743 2.843.743s1.984-.261 2.843-.743l6.743 6.743h-19.172zm13.843 5.329-6.586-6.586 6.586-6.586zm-8.293-7.707c-1.446 1.446-3.968 1.446-5.414 0l-6.879-6.879h19.172zm15.293 29.121c-2.414 0-4.434-1.721-4.899-4h9.798c-.465 2.279-2.485 4-4.899 4zm19-10c1.103 0 2 .897 2 2s-.897 2-2 2h-38c-1.103 0-2-.897-2-2s.897-2 2-2h2v-8h12v-20h-11.23c2.236-7.284 9.119-12.266 16.851-11.989 7.55.268 13.943 5.616 15.821 13.099-3.226 1.661-5.442 5.019-5.442 8.89 0 4.092 2.473 7.613 6 9.159v8.841z"/><path d="m32.548 13.01c-.183-.007-.366-.01-.548-.01v2c.16 0 .32.003.479.008 4.03.143 7.695 2.17 10.055 5.563l1.642-1.143c-2.724-3.913-6.961-6.252-11.628-6.418z"/><path d="m17 49h10v2h-10z"/><path d="m17 45h10v2h-10z"/></g></symbol><symbol id="website" viewBox="0 0 64 64"><title>website</title><path d="m34 50 2 8h-16l2-8z" fill="#969faa"/><path d="m45 60v2h-34v-2c0-1.1.9-2 2-2h7 16 7c1.1 0 2 .9 2 2z" fill="#969faa"/><path d="m54 42v6c0 1.1-.9 2-2 2h-18-12-18c-1.1 0-2-.9-2-2v-6z" fill="#aab2bd"/><path d="m54 12h-50c-1.1 0-2 .9-2 2v28h52v-13.35z" fill="#69d6f4"/><circle cx="48" cy="16" fill="#4fc1e9" r="14"/><path d="m24 16v4h-12v14h-6v-18z" fill="#ffeaa7"/><path d="m24 20h-12v14 4h18v-18z" fill="#e6e9ed"/><path d="m27 36v2h-12v-2c0-1.66.67-3.16 1.76-4.24 1.08-1.09 2.58-1.76 4.24-1.76 3.31 0 6 2.69 6 6z" fill="#ff826e"/><circle cx="21" cy="27" fill="#f0d0b4" r="3"/><path d="m27 45h2v2h-2z"/><path d="m23 45h2v2h-2z"/><path d="m31 45h2v2h-2z"/><path d="m25 15h-20v20h6v4h20v-20h-6zm-18 18v-16h16v2h-12v14zm12-6c0-1.103.897-2 2-2s2 .897 2 2-.897 2-2 2-2-.897-2-2zm2 4c2.757 0 5 2.243 5 5v1h-10v-1c0-2.757 2.243-5 5-5zm8 6h-1v-1c0-2.801-1.658-5.216-4.04-6.334.64-.709 1.04-1.638 1.04-2.666 0-2.206-1.794-4-4-4s-4 1.794-4 4c0 1.028.4 1.957 1.04 2.666-2.382 1.118-4.04 3.533-4.04 6.334v1h-1v-16h16z"/><path d="m63 16c0-8.271-6.729-15-15-15-6.516 0-12.059 4.183-14.125 10h-29.875c-1.654 0-3 1.346-3 3v34c0 1.654 1.346 3 3 3h16.72l-1.5 6h-6.22c-1.654 0-3 1.346-3 3v3h36v-3c0-1.654-1.346-3-3-3h-6.22l-1.5-6h16.72c1.654 0 3-1.346 3-3v-18.743c4.752-2.52 8-7.513 8-13.257zm-15 13c-1.401 0-2.891-1.882-3.878-5h7.756c-.987 3.118-2.477 5-3.878 5zm0-26c1.401 0 2.891 1.882 3.878 5h-7.756c.987-3.118 2.477-5 3.878-5zm4.401 7c.316 1.489.522 3.169.578 5h-9.957c.056-1.831.262-3.511.578-5zm8.548 5h-5.971c-.05-1.782-.226-3.466-.521-5h5.064c.793 1.517 1.291 3.208 1.428 5zm-19.927 0h-5.971c.137-1.792.635-3.483 1.428-5h5.064c-.295 1.534-.471 3.218-.521 5zm0 2c.05 1.782.226 3.466.521 5h-5.064c-.793-1.517-1.291-3.208-1.428-5zm1.001 7c.487 1.721 1.131 3.193 1.899 4.335-2.455-.814-4.583-2.341-6.147-4.335zm1.576-2c-.316-1.489-.522-3.169-.578-5h9.957c-.056 1.831-.262 3.511-.578 5zm11.379-5h5.971c-.137 1.792-.635 3.483-1.428 5h-5.064c.295-1.534.471-3.218.521-5zm3.247-9h-4.248c-.487-1.721-1.131-3.193-1.899-4.335 2.456.814 4.584 2.341 6.147 4.335zm-14.303-4.335c-.768 1.142-1.412 2.614-1.899 4.335h-4.248c1.563-1.994 3.691-3.521 6.147-4.335zm.078 56.335v1h-32v-1c0-.552.448-1 1-1h30c.552 0 1 .448 1 1zm-9.28-3h-13.44l1.5-6h10.44zm17.28-8h-48c-.552 0-1-.448-1-1v-5h50v5c0 .552-.448 1-1 1zm1-8h-50v-27c0-.552.448-1 1-1h29.302c-.197.97-.302 1.973-.302 3 0 8.271 6.729 15 15 15 1.755 0 3.433-.319 5-.875zm-.922-12.665c.768-1.142 1.411-2.614 1.899-4.335h4.248c-1.563 1.994-3.691 3.521-6.147 4.335z"/><path d="m33 33h18v2h-18z"/><path d="m49 37h2v2h-2z"/><path d="m33 37h14v2h-14z"/></symbol><symbol id="seo-and-web" viewBox="0 0 64 64"><title>seo-and-web</title><path d="m27 45h2v2h-2z"/><path d="m31 45h2v2h-2z"/><path d="m23 45h2v2h-2z"/><path d="m25 15h-20v20h6v4h20v-20h-6zm-18 18v-16h16v2h-12v14zm12-6c0-1.103.897-2 2-2s2 .897 2 2-.897 2-2 2-2-.897-2-2zm2 4c2.757 0 5 2.243 5 5v1h-10v-1c0-2.757 2.243-5 5-5zm8 6h-1v-1c0-2.801-1.658-5.216-4.04-6.334.64-.709 1.04-1.638 1.04-2.666 0-2.206-1.794-4-4-4s-4 1.794-4 4c0 1.028.4 1.957 1.04 2.666-2.382 1.118-4.04 3.533-4.04 6.334v1h-1v-16h16z"/><path d="m63 16c0-8.271-6.729-15-15-15-6.516 0-12.059 4.183-14.125 10h-29.875c-1.654 0-3 1.346-3 3v34c0 1.654 1.346 3 3 3h16.72l-1.5 6h-6.22c-1.654 0-3 1.346-3 3v3h36v-3c0-1.654-1.346-3-3-3h-6.22l-1.5-6h16.72c1.654 0 3-1.346 3-3v-18.743c4.752-2.52 8-7.513 8-13.257zm-15 13c-1.401 0-2.891-1.882-3.878-5h7.756c-.987 3.118-2.477 5-3.878 5zm0-26c1.401 0 2.891 1.882 3.878 5h-7.756c.987-3.118 2.477-5 3.878-5zm4.401 7c.316 1.489.522 3.169.578 5h-9.957c.056-1.831.262-3.511.578-5zm8.548 5h-5.971c-.05-1.782-.226-3.466-.521-5h5.064c.793 1.517 1.291 3.208 1.428 5zm-19.927 0h-5.971c.137-1.792.635-3.483 1.428-5h5.064c-.295 1.534-.471 3.218-.521 5zm0 2c.05 1.782.226 3.466.521 5h-5.064c-.793-1.517-1.291-3.208-1.428-5zm1.001 7c.487 1.721 1.131 3.193 1.899 4.335-2.455-.814-4.583-2.341-6.147-4.335zm1.576-2c-.316-1.489-.522-3.169-.578-5h9.957c-.056 1.831-.262 3.511-.578 5zm11.379-5h5.971c-.137 1.792-.635 3.483-1.428 5h-5.064c.295-1.534.471-3.218.521-5zm3.247-9h-4.248c-.487-1.721-1.131-3.193-1.899-4.335 2.456.814 4.584 2.341 6.147 4.335zm-14.303-4.335c-.768 1.142-1.412 2.614-1.899 4.335h-4.248c1.563-1.994 3.691-3.521 6.147-4.335zm.078 56.335v1h-32v-1c0-.552.448-1 1-1h30c.552 0 1 .448 1 1zm-9.28-3h-13.44l1.5-6h10.44zm17.28-8h-48c-.552 0-1-.448-1-1v-5h50v5c0 .552-.448 1-1 1zm1-8h-50v-27c0-.552.448-1 1-1h29.302c-.197.97-.302 1.973-.302 3 0 8.271 6.729 15 15 15 1.755 0 3.433-.319 5-.875zm-.922-12.665c.768-1.142 1.411-2.614 1.899-4.335h4.248c-1.563 1.994-3.691 3.521-6.147 4.335z"/><path d="m33 33h18v2h-18z"/><path d="m49 37h2v2h-2z"/><path d="m33 37h14v2h-14z"/></symbol></svg>