<?xml version="1.0" encoding="UTF-8"?> <!-- Generator: Adobe Illustrator 17.0.0, SVG Export Plug-In . SVG Version: 6.00 Build 0) --> <svg xmlns="http://www.w3.org/2000/svg" xmlns:xlink="http://www.w3.org/1999/xlink" x="0px" y="0px" width="1100px" height="800px" viewBox="0 0 1100 800" xml:space="preserve"> <g id="Background" display="none"> <rect display="inline" fill="#8EC3CB" width="1100" height="800"></rect> </g> <g id="Shadow"> <g opacity="0.4"> <path fill="#DBDBDB" d="M517.023,668.118c-29.109,0.084-58.218,0.762-87.276,3.892c-10.956,1.18-21.683,3.776-32.664,4.823 c-21.934,2.092-43.476,5.993-65.488,7.793c-17.726,1.449-35.526,2.305-53.201,4.143c-16.571,1.724-34.916,1.326-51.359-1.522 c-12.173-2.109-24.402-3.296-36.371-6.682c-13.389-3.789-27.934-6.498-41.884-6.4c-19.892,0.139-39.265,0.155-58.301,6.845 c-6.683,2.348-14.863,6.209-19.938,11.137c-11.617,11.282-13.189,39.432-1.59,51.133c19.536,19.693,61.233,27.42,88.617,27.785 c30.008,0.4,59.159-1.758,89.211-3.026c27.925-1.179,55.779-2.856,83.75-2.797c57.127,0.121,114.262,0,171.286-3.696 c53.575-3.472,107.285-2.28,160.978-2.28c55.06,0,109.747,0.419,164.41,7.506c23.817,3.088,48.081,4.169,72.018,6.332 c21.437,1.938,42.038-0.038,63.39-1.829c17.929-1.504,35.741-5.964,52.029-13.503c12.893-5.968,35.879-24.507,39.833-38.752 c11.085-39.935-156.219-38.975-181.907-38.885c-28.736,0.101-57.701,1.016-86.414-0.045c-12.078-0.446-23.979-2.733-35.767-5.238 c-11.742-2.495-23.572-1.861-35.479-2.91c-49.655-4.374-99.421-3.734-149.235-3.734 C549.46,668.209,533.242,668.071,517.023,668.118z"></path> </g> </g> <g id="Object"> <g> <g> <g> <polygon fill="#3B455A" points="286.762,571.652 289.327,631.156 281.806,732.333 270.553,733.133 256.88,641.24 237.966,563.481 "></polygon> <polygon fill="#2E3644" points="270.955,737.874 283.557,743.094 289.209,736.577 282.692,730.924 270.522,731.789 "></polygon> </g> <g> <polygon fill="#3B455A" points="207.099,550.596 204.63,595.574 211.957,729.311 223.225,729.874 240.113,642.16 255.008,545.97 "></polygon> <polygon fill="#2E3644" points="222.923,734.622 210.433,740.106 204.645,733.709 211.042,727.921 223.227,728.53 "></polygon> </g> <g> <path fill="#537EC5" d="M272.615,418.094l-35.162-3.767c0,0-19.561,2.09-32.833,48.544 c-7.384,25.845-9.632,66.564-10.173,97.608c0.83,4.428,5.655,23.826,26.055,20.535c35.032-5.65,53.679-11.301,68.935-8.476 c12.996,2.825,11.897-15.067,10.469-28.722l-5.179-42.249L272.615,418.094z"></path> </g> <g> <path fill="#AA6755" d="M265.825,374.327c-8.863-1.954-17.984-3.704-26.856-1.948c-1.943,0.385-4.029,1.061-5.083,2.738 c-0.408,0.65-0.624,1.4-0.824,2.141c-2.239,8.322-5.079,20.659,0.4,28.327c1.045,1.462,2.448,2.623,3.956,3.565 c2.016,1.26,4.247,2.117,6.556,2.572c-0.477,2.069-1.142,4.095-1.985,6.044c2.029,3.059,11.493,3.426,13.243,0.493 c0.098-2.538,0.196-5.076,0.294-7.613c1.152-0.465,2.265-1.031,3.31-1.72c4.045-2.664,6.71-6.707,8.258-11.23 c1.686-4.925,4.057-9.606,5.597-14.626c0.561-1.829,1.004-3.916,0.041-5.569c-1.024-1.76-3.235-2.359-5.222-2.802 C266.95,374.576,266.388,374.451,265.825,374.327z"></path> <path fill="#3B455A" d="M236.327,379.085c4.38-2.817,10.952-4.03,15.071-3.732c12.452,0.902,17.014,10.047,17.679,21.496 c3.431-4.36,9.868-9.844,10.257-15.455c0.318-4.592-0.317-10.855-2.89-14.821c-2.408-3.711-8.563-5.749-12.224-7.9 c-3.451-2.027-6.902-4.054-10.353-6.081c-0.718-0.422-1.455-0.851-2.275-0.993c-0.97-0.168-1.958,0.08-2.911,0.326 c-8.156,2.108-16.312,4.216-24.468,6.324c-1.567,0.405-3.352,0.996-3.929,2.508c-0.351,0.92-0.145,1.947,0.066,2.909 c0.926,4.234,2.704,8.562,3.144,12.851c0.498,2.492,1.984,15.264,6.396,13.79c1.295-2.118,1.49-4.728,2.499-6.997 C233.134,381.634,234.55,380.227,236.327,379.085z"></path> </g> <polygon fill="#537EC5" points="237.454,414.327 224.458,418.283 176.994,468.006 174.169,484.392 196.859,521.856 202.986,508.124 193.38,480.437 208.637,469.701 228.978,423.933 "></polygon> </g> <g> <polygon fill="#EFEFEF" points="647.81,32.611 513.289,33.952 419.118,130.021 420.46,264.542 516.529,358.713 651.049,357.371 745.221,261.302 743.879,126.782 "></polygon> <polygon fill="#D34E4E" points="733.22,131.322 643.483,43.358 517.83,44.611 429.866,134.348 431.119,260.002 520.856,347.966 646.509,346.712 734.474,256.975 "></polygon> <g> <path fill="#FFFFFF" d="M515.629,179.811l0.013,1.295l-14.138,0.141l-0.01-0.971c-0.062-6.26-3.88-10.215-10.14-10.153 c-6.691,0.067-10.327,3.449-10.282,7.982c0.15,15.002,36.001,5.793,36.272,32.991c0.169,16.945-10.558,23.636-25.884,23.789 c-13.599,0.136-25.656-7.516-25.808-22.733c-0.009-0.863,0.089-1.836,0.084-2.375l14.354-0.143 c0.002,0.216-0.096,1.188-0.091,1.728c0.07,7.015,4.434,11.721,11.989,11.646c8.31-0.083,11.18-4.537,11.137-8.854 c-0.175-17.592-36.011-6.764-36.292-34.933c-0.14-14.031,11.449-20.838,24.509-20.969 C504.51,158.119,515.477,164.593,515.629,179.811z"></path> <path fill="#FFFFFF" d="M573.396,171.031l-18.347,0.183l0.616,61.734l-13.815,0.138l-0.616-61.734l-18.347,0.183l-0.123-12.304 l50.51-0.504L573.396,171.031z"></path> <path fill="#FFFFFF" d="M639.048,195.094c0.26,26.118-11.274,38.43-30.377,38.621c-19.103,0.191-30.881-11.889-31.142-38.007 c-0.261-26.118,11.274-38.43,30.377-38.621C627.01,156.897,638.788,168.976,639.048,195.094z M591.749,192.868l0.054,5.396 c0.148,14.786,5.741,23.689,16.75,23.579c11.008-0.11,16.423-9.123,16.276-23.909l-0.054-5.396 c-0.148-14.786-5.741-23.689-16.749-23.579C597.017,169.069,591.602,178.082,591.749,192.868z"></path> <path fill="#FFFFFF" d="M663.09,203.166l0.286,28.709l-13.815,0.138l-0.739-74.038l26.442-0.264 c15.326-0.153,23.298,9.158,23.426,22.001c0.139,13.923-9.051,23.189-22.974,23.328L663.09,203.166z M662.761,170.14 l0.208,20.83l11.225-0.112c6.691-0.067,10.32-4.205,10.252-11.004c-0.06-6.044-3.877-9.892-10.46-9.826L662.761,170.14z"></path> </g> </g> <g> <g> <polygon fill="#2E3644" points="813.025,727.979 813.928,735.003 800.783,743.833 792.856,737.712 798.977,729.785 812.122,720.955 "></polygon> <g> <polygon fill="#537EC5" points="813.469,725.621 803.332,636.04 815.529,535.755 812.786,514.423 758.307,512.353 756.341,547.074 765.487,636.178 799.894,730.199 "></polygon> </g> <g> <polygon fill="#537EC5" points="718.333,522.392 718.189,612.79 736.385,729.163 749.482,729.032 756.682,621.414 773.531,513.701 "></polygon> <polygon fill="#2E3644" points="749.462,734.555 735.37,741.778 728.217,734.767 735.228,727.615 749.391,727.474 "></polygon> </g> <g> <path fill="#3B455A" d="M821.166,553.136c-0.125-3.917-0.343-7.186-0.374-8.354c-0.281-10.509-1.217-20.994-2.533-31.428 c-1.179-9.35-2.667-32.562-4.267-41.855c-1.321-7.672-5.925-26.823-9.252-33.94c-8.272-17.698-5.716-19.333-42.054-24.587 c-15.925-2.303-19.69,7.622-32.71,19.035c-1.284,1.125-1.213,7.828-1.511,9.603c-0.525,3.126-1.087,6.246-1.731,9.351 c-0.507,2.441-1.065,4.874-1.693,7.292l0.001-0.001c0,0-10.93,49.741-18.158,60.305c-7.228,10.564-22.161,25.333,2.818,34.35 c4.427,1.431,8.881,2.793,13.489,3.52c0,0,20.429-2.27,30.935-2.192c9.676,0.072,19.392,1.052,28.904,2.692 c6.361,1.063,12.852,2.608,18.543,5.58c5.429,2.836,9.347,7.007,14.855,9.943c0.522,0.278,1.094,0.566,1.687,0.484 C821.281,572.498,821.429,561.382,821.166,553.136z"></path> </g> <g> <path fill="#EAC1A4" d="M762.646,417.964c1.833,0.905,6.161,1.23,10.675-0.538c0.91-0.356,1.524-1.234,1.511-2.21 c-0.036-2.742-0.256-5.481-0.66-8.194c3.386-1.19,7.298-2.976,7.888-6.516c0.186-1.115-0.007-2.254-0.199-3.368 c-0.796-4.605-1.592-9.21-2.387-13.815c-0.275-1.593-0.568-3.232-1.434-4.597c-1.52-2.395-4.47-3.442-7.264-3.927 c-7.131-1.238-14.901,0.307-20.43,4.977c-1.472,1.243-2.802,2.737-3.451,4.551c-1,2.796-0.252,5.881,0.502,8.753 c0.696,2.651,1.392,5.303,2.089,7.954c0.801,3.05,1.957,6.516,4.895,7.66c1.56,0.607,3.402,0.43,4.815,1.328 C761.686,411.607,761.35,415.311,762.646,417.964z"></path> <path fill="#3B455A" d="M721.49,372.039c-0.7-1.15-1.455-2.26-2.299-3.3c-1.829-2.254-4.082-4.187-5.553-6.689 c-1.471-2.502-1.989-5.894-0.224-8.198c1.139-1.487,2.988-2.23,4.785-2.759c5.922-1.743,12.312-1.861,18.294-0.338 c5.698,1.45,10.797,3.852,16.532,1.71c5.389-2.013,9.281-1.193,14.914,0.817c6.095,2.175,14.277,2.688,19.794,5.758 c2.304,1.282,4.142,3.286,5.575,5.499c4.964,7.668,4.992,18.24,0.067,25.934c-1.105,1.726-2.427,3.304-3.816,4.81 c-2.876,3.118-6.315,6.97-10.271,8.126c-0.094-3.538,3.129-14.696,0.412-17.597c-4.313-4.602-14.064-2.997-19.414-1.864 c-5.836,1.236-11.037,5.369-16.823,6.252c-4.163,0.635-9.477-1.406-13.017-3.558 C726.08,383.983,724.046,376.237,721.49,372.039z"></path> </g> <polygon fill="#7FC5A3" points="792.856,419.775 815.529,439.641 840.822,492.794 808.875,530.801 803.379,509.547 "></polygon> </g> <g> <polygon fill="#EAC1A4" points="646.024,435.047 634.763,427.797 637.652,422.849 646.463,426.106 646.743,423.132 655.623,430.51 653.314,436.059 "></polygon> <polygon fill="#3B455A" points="751.462,414.627 692.711,438.714 655.623,430.51 651.999,437.604 685.827,462.507 732.449,456.957 "></polygon> </g> </g> <g> <g> <polygon fill="#2E3644" points="567.176,733.918 566.86,740.066 578.84,746.847 585.305,741.015 579.473,734.55 567.492,727.769 "></polygon> <polygon fill="#40495F" points="557.408,547.323 556.447,565.996 577.182,648.194 566.634,731.903 578.705,734.97 612.216,634.394 612.819,604.129 604.493,541.911 "></polygon> </g> <g> <polygon fill="#40495F" points="649.22,545.557 658.511,623.594 654.602,725.916 643.281,727.131 626.152,634.943 600.68,543.651 "></polygon> <polygon fill="#474EBB" points="643.858,731.898 656.758,736.705 662.223,729.927 655.444,724.462 643.201,725.776 "></polygon> </g> </g> <g> <path fill="#537EC5" d="M653.792,532.566c-11.659-23.743-16.315-49.776-22.423-75.385c-1.805-7.556-3.679-15.274-7.882-21.807 c-4.826-7.502-11.493-10.863-18.877-12.156c-9.399-1.645-19.962,0.062-29.372,0.848c-5.694,17.788-9.402,7.695-16.088,25.134 c-1.386,3.615-5.32,34.927-6.78,38.513v0c0,0-15.363,48.112-10.446,86.163c0.049,0.377,0.09,0.744,0.134,1.113 c0.992,0.17,1.943,0.342,2.833,0.522c13.262,2.685,26.791,4.133,40.328,3.957c12.008-0.156,24.016-1.611,35.678-4.495 c15.963-3.948,34.917-2.335,47.968-12.855C665.039,554.329,657.618,540.357,653.792,532.566z"></path> </g> <g> <polygon fill="#537EC5" points="516.407,429.352 529.522,358.158 540.665,360.311 541.176,414.033 "></polygon> </g> <polygon fill="#537EC5" points="516.407,429.352 581.484,471.76 572.235,428.359 532.253,410.106 "></polygon> <g> <path fill="#AA6755" d="M600.656,392.993c-8.447-12.728-30.192-12.036-30.507,5.517c-0.095,5.275,0.459,10.693,2.79,15.425 c2.332,4.733,6.692,8.696,11.91,9.474c0.03,0.005,0.059,0.007,0.089,0.011c0.171,1.346,0.343,2.693,0.514,4.039 c0.037,0.289,0.088,0.606,0.308,0.797c0.251,0.217,0.624,0.191,0.954,0.152c1.611-0.191,3.222-0.382,4.833-0.573 c0.798-0.095,1.628-0.2,2.303-0.638c1.476-0.959,1.621-3.08,1.229-4.796c-0.094-0.41-0.209-0.819-0.327-1.228 C603.059,415.537,606.177,401.313,600.656,392.993z"></path> <g> <path fill="#3B455A" d="M566.074,378.013c-3.818,0.879-5.516,5.582-8.124,8.725c-2.169,2.615-5.149,4.251-7.522,6.644 c-2.373,2.393-4.156,6.143-2.918,9.475c-3.502-0.372-7.261-0.688-10.273,1.219c-3.012,1.907-4.511,6.984-1.954,9.682 c2.29,2.415,6.301,1.622,8.657,3.959c3.727,3.698,1.121,12.734,5.923,14.272c1.154,0.37,2.412,0.075,3.559,0.472 c1.425,0.493,2.383,1.924,3.404,3.13c4.63,5.464,12.608,7.09,18.56,3.781c3.188-3.363,4.819-8.366,4.516-13.243 c-0.365-5.877-3.872-6.603-6.264-11.316c-2.615-5.15-3.138-11.487-1.399-16.966c1.131-3.565,3.354-7.129,6.546-8.746 c1.298-0.658,1.315,0.633,2.422-1.005c0.475-0.703,0.699-2.745,0.565-3.629C576.997,382.974,571.096,376.856,566.074,378.013z"></path> <path fill="#3B455A" d="M606.908,369.674c2.064-0.212,4.055-1.081,6.133-0.999c3.121,0.122,4.044,2.949,5.74,5.054 c1.878,2.33,4.491,5.422,7.055,6.802c1.848,0.994,3.95,1.149,5.94,1.695s4.071,1.688,4.851,3.772 c0.74,1.975,0.111,4.256,0.688,6.293c0.912,3.015,2.005,4.314,2.276,7.655c0.14,1.724,0.26,3.561-0.484,5.066 c-0.981,1.984-3.164,2.81-5.196,3.239c-2.032,0.43-4.211,0.674-5.844,2.045c-3.541,2.973-1.16,6.799-0.889,10.683 c0.412,5.91-4.483,11.375-9.885,11.336c-4.58-0.033-8.674-3.73-10.275-8.336c-0.802-2.306-0.728-4.777-1.555-7.077 c-0.797-2.217-3.224-4.768-1.92-7.288c0.318-0.614,0.851-1.081,1.096-1.734c0.198-0.528,0.188-1.129,0.105-1.699 c-0.288-1.978-1.462-3.797-3.075-4.766c-1.159-0.696-2.545-0.992-3.487-2.011c-1.08-1.167-1.286-2.946-1.792-4.505 c-1.224-3.768-4.655-6.589-8.28-6.807c-2.389-0.144-4.427,0.018-6.753-0.714c-0.354-0.111-5.767-2.086-5.57-1.278 c-0.344-1.407-0.023-2.882,0.347-4.263c0.607-2.272,1.376-4.554,2.791-6.328c4.577-5.734,7.975,2.085,12.315-0.822 c1.047-0.701,1.497-2.09,2.282-3.121c1.483-1.948,4.041-2.464,6.381-2.358C602.242,369.315,604.583,369.913,606.908,369.674z"></path> </g> </g> <g> <g> <path fill="#537EC5" d="M623.408,463.258c1.226,5.42,5.704,10.553,9.649,16.202c4.634,6.636,9.268,13.272,13.902,19.908 l-15.076,47.792l9.412,3.233l27.174-47.682c-0.026-19.046-17.03-28.807-21.49-39.5c-2.322-5.568-20.17-22.785-23.493-27.838 c-4.888-7.433,1.762,5.127-4.216,11.168C614.26,451.606,622.436,458.957,623.408,463.258z"></path> </g> <polygon fill="#AA6755" points="638.663,553.269 636.722,555.886 632.182,554.802 628.412,557.298 627.515,554.869 634.096,548.024 639.148,549.747 "></polygon> </g> <polygon fill="#AA6755" points="532.037,354.491 536.918,346.354 539.437,352.058 542.269,350.219 543.334,353.449 539.724,360.158 532.141,358.688 "></polygon> <g> <polygon fill="#2E3644" points="421.243,721.465 433.703,728.315 432.621,734.166 410.478,731.126 411.668,722.701 "></polygon> <polygon fill="#2E3644" points="364.897,727.881 356.23,727.776 354.114,735.116 354.333,735.178 354.278,735.185 368.713,743.484 375.534,744.151 376.297,736.356 374.439,735.033 "></polygon> <path fill="#CCD2D9" d="M391.623,589.637c1.392-0.145,5.19,49.727,5.19,49.727l-26.977,90.631l-15.555-3.062l9.475-90.49 c0,0-32.928-37.972-23.446-66.336C354.639,577.055,391.623,589.637,391.623,589.637z"></path> <path fill="#CCD2D9" d="M430.488,590.06l3.148,44.465l-8.679,88.503l-16.012-0.817c0,0-3.859-83.825-5.444-85.535 c-1.586-1.711-15.221-45.693-15.221-45.693L430.488,590.06z"></path> <g> <path fill="#474EBB" d="M409.439,610.352c-50.851-0.933-54.583-26.591-65.779-29.391c-11.197-2.799-5.359-16.132-5.359-16.132 s2.119-5.949,3.027-9.06c6.53-22.389,26.138-51.127,26.144-51.137c9.67-13.196,19.378-24.853,27.758-31.891 c24.926-20.932,51.627-21.91,51.627-21.91c38.458,12.025,24.885,30.106,25.326,34.863c-12.65,11.594-21.812,28.964-28.57,47.616 c-3.184,9.88-6.941,26.942-4.316,47.651c0.842,6.644,1.815,12.403,2.781,17.418 C442.264,604.927,435.968,610.773,409.439,610.352z"></path> <path fill="#537EC5" d="M447.005,454.885c0,0,8.56-4.689,13.861,3.465c6.435,9.9-29.943,54.55-29.08,150.04 c-9.532,1.931-34.099,6.54-59.437-5.417C378.106,574.603,402.949,489.041,447.005,454.885z"></path> </g> <polygon fill="#EBCEB1" points="482.312,595.421 492.261,604.651 496.391,600.571 490.978,592.742 493.826,591.718 484.35,584.857 479.484,588.519 "></polygon> <path fill="#474EBB" d="M472.095,468.256l3.472,8.054l-3.316,59.221c0,0,17.53,50.693,17.056,50.693 c-0.474,0-11.844,3.79-11.844,3.79l-25.583-51.167v-31.269L472.095,468.256z"></path> <g> <path fill="#3B455A" d="M465.821,424.733c4.309,3.362,8.049,10.508,6.564,16.134c-0.715,2.709-2.67,4.525-3.32,7.455 c-1.304,5.772-11.34,10.022-7.118,16.72c2.17,3.443,6.373,4.898,10.256,6.115c0.471,0.148,0.966,0.297,1.45,0.201 c0.797-0.158,1.333-0.953,1.481-1.752c0.148-0.799-0.003-1.618-0.088-2.426c-0.884-8.452,4.836-16.913,6.955-24.899 c2.115-7.972,2.005-17.073-3.521-23.694c-4.713,0.436-6.621-0.472-9.645,3.168L465.821,424.733z"></path> <path fill="#EAC1A4" d="M455.728,458.534c5.609,0.441,11.089-2.633,14.646-6.994c3.556-4.36,5.429-9.858,6.593-15.362 c3.875-18.318-18.558-24.243-30.383-13.038C436.278,432.905,439.419,457.252,455.728,458.534z"></path> <path fill="#3B455A" d="M427.798,455.095c2.982-0.22,5.954-0.528,8.626-2.457c4.318-3.117,6.866-10.142,9.517-14.59 c2.792-4.689,5.987-9.718,11.143-11.508c3.367-1.169,6.357-0.407,9.52,0.86c2.166,0.868,1.907,1.716,4.211,1.325 c1.766-0.3,4.065-2.443,5.036-3.853c1.637-2.378,1.744-5.566,0.874-8.319c-1.338-4.237-3.828-7.107-7.784-8.871 c-13.887-6.194-27.898-2.3-37.598,9.735c-4.662,5.785-6.333,13.704-11.019,19.188c-2.893,3.386-6.493,4.94-9.257,8.678 c-7.173,9.701-18.945,21.015-23.182,32.38c-0.157,0.421-0.3,0.899-0.106,1.304c0.396,0.824,1.627,0.54,2.445,0.131 c4.775-2.383,9.55-4.765,14.325-7.148c1.875-0.936,3.777-1.89,5.322-3.306c3.846-3.526,5.179-9.616,9.847-11.946 C422.266,455.427,425.036,455.299,427.798,455.095z"></path> </g> <g> <polygon fill="#474EBB" points="408.292,479.152 369.917,470.151 359.66,419.15 372.4,420.262 382.235,453.569 431.98,454.99 434.823,458.78 "></polygon> </g> </g> <path fill="#EBCEB1" d="M370.352,420.083l-1.254-13.373l-9.472-7.243l-0.557,3.9l3.343,3.343c0,0,0.836,3.9,3.204,5.851 c-0.279,2.229-2.089,6.965-2.089,6.965L370.352,420.083z"></path> <g> <path fill="#EBB044" d="M1011.646,464.694L894.92,347.968c-9.806-9.806-25.704-9.806-35.51,0L742.685,464.694 c-9.806,9.806-9.806,25.704,0,35.51l116.726,116.726c9.806,9.806,25.704,9.806,35.51,0l116.725-116.726 C1021.451,490.397,1021.451,474.499,1011.646,464.694z"></path> <path fill="#3B455A" d="M931.638,492.234v-41.421c0-30.036-24.436-54.472-54.472-54.472c-30.036,0-54.472,24.436-54.472,54.472 v95.542h26.66v-95.542c0-15.336,12.476-27.812,27.812-27.812c15.335,0,27.812,12.476,27.812,27.812v41.421h-28.598l41.928,54.121 l41.928-54.121H931.638z"></path> </g> <g> <path fill="#EFEFEF" d="M576.265,512.322c-19.264-19.264-44.878-29.874-72.121-29.874c-27.244,0-52.857,10.609-72.121,29.874 c-19.265,19.264-29.874,44.878-29.874,72.121s10.609,52.857,29.874,72.121c19.264,19.264,44.877,29.874,72.121,29.874 c27.244,0,52.857-10.609,72.121-29.874c19.264-19.264,29.873-44.877,29.873-72.121S595.529,531.586,576.265,512.322z"></path> <circle fill="#D34E4E" cx="504.144" cy="584.443" r="94.791"></circle> <rect x="431.854" y="569.567" fill="#FFFFFF" width="144.58" height="29.753"></rect> </g> <polygon fill="#AA6755" points="321.266,324.752 324.571,308.868 318.188,303.111 313.352,308.828 312.007,315.296 307.913,316.063 309.919,327.155 "></polygon> <polygon fill="#537EC5" points="272.095,418.238 301.077,397.598 309.919,327.155 321.266,324.752 320.787,397.976 312.814,414.591 278.671,445.667 "></polygon> <g> <circle fill="#3B455A" cx="171.83" cy="501.006" r="75.912"></circle> <path fill="#FFFFFF" d="M211.482,487.049l-36.403-28.202v18.522h-10.095c-18.089,0-32.806,14.717-32.806,32.806v32.988h19.359 v-32.988c0-7.415,6.032-13.447,13.447-13.447h10.095v18.522L211.482,487.049z"></path> </g> <g> <path fill="#EBB044" d="M391.298,328.485L279.163,126.738c-5.088-9.155-18.179-9.368-23.564-0.384L136.948,324.339 c-5.384,8.984,0.977,20.428,11.449,20.599l230.786,3.762C389.656,348.87,396.387,337.64,391.298,328.485z"></path> <g> <path fill="#3B455A" d="M256.532,279.428l-7.365-89.017l34.334,0.743l-10.076,88.549L256.532,279.428z M249.718,291.806 l29.93,0.488l-0.482,29.563l-29.93-0.488L249.718,291.806z"></path> </g> </g> </g> </g> </svg> 