<?xml version="1.0" standalone="no"?>
<svg xmlns:xlink="http://www.w3.org/1999/xlink" id="wave" style="transform:rotate(0deg); transition: 0.3s" viewBox="0 0 1440 180" version="1.1" xmlns="http://www.w3.org/2000/svg"><defs><linearGradient id="sw-gradient-0" x1="0" x2="0" y1="1" y2="0"><stop stop-color="rgba(32, 191, 85, 1)" offset="0%"/><stop stop-color="rgba(1, 186, 239, 1)" offset="100%"/></linearGradient></defs><path style="transform:translate(0, 0px); opacity:1" fill="url(#sw-gradient-0)" d="M0,90L40,84C80,78,160,66,240,57C320,48,400,42,480,60C560,78,640,120,720,141C800,162,880,162,960,153C1040,144,1120,126,1200,117C1280,108,1360,108,1440,99C1520,90,1600,72,1680,63C1760,54,1840,54,1920,63C2000,72,2080,90,2160,87C2240,84,2320,60,2400,51C2480,42,2560,48,2640,57C2720,66,2800,78,2880,93C2960,108,3040,126,3120,132C3200,138,3280,132,3360,114C3440,96,3520,66,3600,69C3680,72,3760,108,3840,126C3920,144,4000,144,4080,129C4160,114,4240,84,4320,75C4400,66,4480,78,4560,96C4640,114,4720,138,4800,147C4880,156,4960,150,5040,126C5120,102,5200,60,5280,48C5360,36,5440,54,5520,57C5600,60,5680,48,5720,42L5760,36L5760,180L5720,180C5680,180,5600,180,5520,180C5440,180,5360,180,5280,180C5200,180,5120,180,5040,180C4960,180,4880,180,4800,180C4720,180,4640,180,4560,180C4480,180,4400,180,4320,180C4240,180,4160,180,4080,180C4000,180,3920,180,3840,180C3760,180,3680,180,3600,180C3520,180,3440,180,3360,180C3280,180,3200,180,3120,180C3040,180,2960,180,2880,180C2800,180,2720,180,2640,180C2560,180,2480,180,2400,180C2320,180,2240,180,2160,180C2080,180,2000,180,1920,180C1840,180,1760,180,1680,180C1600,180,1520,180,1440,180C1360,180,1280,180,1200,180C1120,180,1040,180,960,180C880,180,800,180,720,180C640,180,560,180,480,180C400,180,320,180,240,180C160,180,80,180,40,180L0,180Z"/></svg>